<svg width="461" height="135" viewBox="0 0 461 135" fill="none" xmlns="http://www.w3.org/2000/svg">
<rect width="461" height="134.287" fill="#2F4822"/>
<circle cx="40.7873" cy="51.5373" r="5.73159" stroke="#D5C9C9" stroke-width="1.79112"/>
<circle cx="40.757" cy="66.0754" r="5.52263" fill="#F25430"/>
<path d="M15.5312 60.2239C17.6507 61.3582 22.0987 64.1345 29.0841 62.4329C34.0829 61.2152 36.0396 58.1641 40.7562 58.1641" stroke="#D5C9C9" stroke-width="1.79112"/>
<path d="M65.9531 60.2239C63.8336 61.3582 59.3857 64.1345 52.4003 62.4329C47.4015 61.2152 45.4448 58.1641 40.7281 58.1641" stroke="#D5C9C9" stroke-width="1.79112"/>
<path d="M36.9654 77.9275C29.4427 77.1414 14.7074 74.3114 17.1437 69.5092C19.7219 65.3814 27.5919 67.8773 30.8159 69.5092L40.7865 75.3602L51.3243 69.5092C54.6777 67.8176 61.9337 65.4493 64.1308 69.5092C66.3279 73.5691 51.8119 76.8429 44.518 77.9574" stroke="#D5C9C9" stroke-width="1.79112"/>
<path d="M18.762 83.1393H19.7417L17.6612 86.2095V88.4414H16.8028V86.2095L14.7325 83.1393H15.7727L17.2674 85.4016L18.762 83.1393ZM19.9282 85.7954C19.9282 85.0144 20.2008 84.3681 20.7462 83.8564C21.2916 83.3312 21.9884 83.0687 22.8367 83.0687C23.6716 83.0687 24.3617 83.3211 24.9071 83.8261C25.4591 84.331 25.7352 84.9875 25.7352 85.7954C25.7352 86.5966 25.4591 87.2531 24.9071 87.7648C24.3684 88.2765 23.6783 88.5323 22.8367 88.5323C22.0019 88.5323 21.305 88.2798 20.7462 87.7749C20.2008 87.2699 19.9282 86.6101 19.9282 85.7954ZM20.8371 85.7954C20.8371 86.334 21.029 86.7919 21.4127 87.1689C21.7898 87.5392 22.2644 87.7244 22.8367 87.7244C23.4427 87.7244 23.9241 87.5426 24.2809 87.179C24.6445 86.8154 24.8263 86.3542 24.8263 85.7954C24.8263 85.2299 24.6344 84.772 24.2506 84.4219C23.8736 84.0584 23.4023 83.8766 22.8367 83.8766C22.2644 83.8766 21.7864 84.0584 21.4026 84.4219C21.0256 84.7788 20.8371 85.2366 20.8371 85.7954ZM30.9188 86.3913H29.4241V85.6338H31.7267V87.7951C31.4709 88.024 31.1376 88.2024 30.7269 88.3303C30.3028 88.465 29.9089 88.5323 29.5453 88.5323C28.6162 88.5323 27.8857 88.2866 27.3538 87.7951C26.8152 87.2968 26.5459 86.6303 26.5459 85.7954C26.5459 85.0144 26.8118 84.3681 27.3437 83.8564C27.8756 83.3312 28.5724 83.0687 29.4342 83.0687C30.1614 83.0687 30.7808 83.2437 31.2925 83.5938L30.9188 84.2705C30.5418 84.0079 30.0806 83.8766 29.5352 83.8766C28.9158 83.8766 28.4142 84.0483 28.0305 84.3916C27.6467 84.735 27.4548 85.2029 27.4548 85.7954C27.4548 86.3744 27.6467 86.8424 28.0305 87.1992C28.421 87.5493 28.9326 87.7244 29.5655 87.7244C30.1445 87.7244 30.5956 87.5931 30.9188 87.3305V86.3913ZM38.0609 86.9972C38.0609 86.7952 37.9565 86.6269 37.7478 86.4923C37.5391 86.3576 37.2833 86.2465 36.9803 86.159C36.684 86.0647 36.3844 85.9637 36.0815 85.856C35.7852 85.7416 35.5327 85.5732 35.324 85.3511C35.1153 85.1222 35.0109 84.8427 35.0109 84.5128C35.0109 84.0752 35.1826 83.7251 35.526 83.4625C35.8694 83.1999 36.3676 83.0687 37.0207 83.0687C37.3371 83.0687 37.6805 83.136 38.0508 83.2706C38.4346 83.4053 38.7072 83.5635 38.8688 83.7453L38.475 84.3815C38.2932 84.2402 38.0575 84.1223 37.768 84.0281C37.4852 83.9271 37.2227 83.8766 36.9803 83.8766C36.6504 83.8766 36.3912 83.9372 36.2026 84.0584C36.0141 84.1796 35.9199 84.3445 35.9199 84.5532C35.9199 84.8764 36.2767 85.1423 36.9904 85.3511C37.253 85.4184 37.4819 85.4891 37.6771 85.5631C37.8724 85.6372 38.0777 85.7382 38.2932 85.8661C38.5154 85.994 38.6837 86.159 38.7981 86.361C38.9126 86.563 38.9698 86.7919 38.9698 87.0477C38.9698 87.4921 38.7813 87.8523 38.4043 88.1283C38.034 88.3976 37.5593 88.5323 36.9803 88.5323C36.5292 88.5323 36.105 88.4582 35.7078 88.3101C35.3106 88.1553 35.0143 87.9499 34.8191 87.6941L35.3139 87.1083C35.4957 87.2901 35.7448 87.4382 36.0613 87.5527C36.3844 87.6671 36.7076 87.7244 37.0308 87.7244C37.327 87.7244 37.5728 87.6604 37.768 87.5325C37.9633 87.3978 38.0609 87.2194 38.0609 86.9972ZM41.4275 83.9473H39.4581V83.1393H44.2653V83.9473H42.2859V88.4414H41.4275V83.9473ZM48.9835 83.1393H49.842V86.2398C49.842 87.0006 49.6231 87.5729 49.1855 87.9566C48.7479 88.3337 48.2025 88.5222 47.5494 88.5222C46.8021 88.5222 46.2063 88.3168 45.7619 87.9062C45.3243 87.4955 45.1054 86.9232 45.1054 86.1893V83.1393H45.9639V86.0176C45.9639 86.5428 46.1019 86.9568 46.3779 87.2598C46.654 87.5628 47.0445 87.7143 47.5494 87.7143C48.014 87.7143 48.3675 87.5729 48.6099 87.2901C48.859 87.0073 48.9835 86.6 48.9835 86.0681V83.1393ZM51.56 88.4414H51.459V83.1393H51.56C51.8091 83.1393 52.0582 83.136 52.3073 83.1292C52.5564 83.1225 52.8224 83.1192 53.1052 83.1192C54.2161 83.1192 55.0375 83.3615 55.5694 83.8463C56.108 84.3243 56.3773 84.9538 56.3773 85.7348C56.3773 86.5428 56.0878 87.1992 55.5088 87.7042C54.9365 88.2091 54.1151 88.4616 53.0446 88.4616C52.8157 88.4616 52.5834 88.4582 52.3477 88.4515C52.1188 88.4448 51.8562 88.4414 51.56 88.4414ZM53.0951 83.9271C53.0479 83.9271 52.7887 83.9338 52.3174 83.9473V87.6335C52.4453 87.6335 52.5699 87.6368 52.6911 87.6436C52.8123 87.6436 52.9032 87.6469 52.9638 87.6537C53.0244 87.6537 53.0614 87.6537 53.0749 87.6537C53.8289 87.6537 54.4147 87.482 54.8321 87.1386C55.2563 86.7952 55.4684 86.3273 55.4684 85.7348C55.4684 85.1625 55.2664 84.7182 54.8624 84.4017C54.4584 84.0853 53.8693 83.9271 53.0951 83.9271ZM58.6327 88.4414H57.7743V83.1393H58.6327V88.4414ZM60.0289 85.7954C60.0289 85.0144 60.3016 84.3681 60.847 83.8564C61.3923 83.3312 62.0891 83.0687 62.9375 83.0687C63.7723 83.0687 64.4625 83.3211 65.0078 83.8261C65.5599 84.331 65.8359 84.9875 65.8359 85.7954C65.8359 86.5966 65.5599 87.2531 65.0078 87.7648C64.4692 88.2765 63.7791 88.5323 62.9375 88.5323C62.1026 88.5323 61.4058 88.2798 60.847 87.7749C60.3016 87.2699 60.0289 86.6101 60.0289 85.7954ZM60.9378 85.7954C60.9378 86.334 61.1297 86.7919 61.5135 87.1689C61.8905 87.5392 62.3652 87.7244 62.9375 87.7244C63.5434 87.7244 64.0248 87.5426 64.3817 87.179C64.7452 86.8154 64.927 86.3542 64.927 85.7954C64.927 85.2299 64.7351 84.772 64.3514 84.4219C63.9743 84.0584 63.503 83.8766 62.9375 83.8766C62.3652 83.8766 61.8872 84.0584 61.5034 84.4219C61.1264 84.7788 60.9378 85.2366 60.9378 85.7954Z" fill="#D5C9C9"/>
<path d="M452.219 124.875L435.227 124.762" stroke="#F27F42" stroke-width="6.54314"/>
<path d="M451.363 35.1211V82.1226" stroke="#EBAE99" stroke-width="6.54314"/>
<path d="M352.344 14.1836H373.827" stroke="#F27F42" stroke-width="6.54314"/>
<path d="M449.184 11.7852V25.1986" stroke="#282D26" stroke-width="6.54314"/>
<path d="M441.551 60.6406V74.0541" stroke="#675B2F" stroke-width="6.54314"/>
<path d="M442.738 93.3555L437.479 96.901" stroke="#F25430" stroke-width="6.54314"/>
<path d="M422.355 71.2129L427.422 75.0301" stroke="#F25430" stroke-width="6.54314"/>
<path d="M449.565 106.047L433.482 111.531" stroke="#F27F42" stroke-width="6.54314"/>
<path d="M434.54 82.265L421.702 93.3959" stroke="#F27F42" stroke-width="6.54314"/>
<path d="M275.355 16.6055V28.3831" stroke="#282D26" stroke-width="6.54314"/>
<path d="M275.355 109.961V128.173" stroke="#675B2F" stroke-width="6.54314"/>
<path d="M430.645 13.2031V34.5774" stroke="#F25430" stroke-width="6.54314"/>
<path d="M334.255 21.5762C331.43 15.9793 320.253 5.75082 307.85 12.4909" stroke="#EBAE99" stroke-width="6.54314"/>
<path d="M379.281 85.3941C380.59 83.2131 385.017 80.1596 392.258 85.3941C399.5 90.6287 402.618 88.0842 403.273 86.1576" stroke="#EBAE99" stroke-width="6.54314"/>
<path d="M398.586 96.4102C400.44 99.0274 403.711 106.094 401.967 113.422" stroke="#F27F42" stroke-width="6.54314"/>
<path d="M345.805 33.0488V38.8286" stroke="#F25430" stroke-width="6.54314"/>
<path d="M383.316 43.082V49.8433" stroke="#F25430" stroke-width="6.54314"/>
<path d="M383.969 13.748V28.3611" stroke="#94120D" stroke-width="6.54314"/>
<path d="M394.875 13.748V28.3611" stroke="#F27F42" stroke-width="6.54314"/>
<path d="M405.453 16.8008V24.7616" stroke="#282D26" stroke-width="6.54314"/>
<path d="M405.672 36.3223H414.723" stroke="#F27F42" stroke-width="6.54314"/>
<path d="M338.387 25.1992H368.703C371.43 25.1992 374.81 27.8165 374.81 34.4687C374.81 38.0674 385.752 37.0496 391.277 36.9769C393.422 36.9042 397.668 38.3073 397.493 44.5015C397.319 50.6956 410.361 48.4273 416.032 48.4273" stroke="#F25430" stroke-width="6.54314"/>
<path d="M359 111.676C361.326 110.949 366.765 109.604 369.905 110.04" stroke="#F25430" stroke-width="6.54314"/>
<path d="M367.285 88.0117C367.794 92.3738 370.513 101.447 377.318 102.843C378.808 103.206 381.593 105.438 380.808 111.458" stroke="#F27F42" stroke-width="6.54314"/>
<path d="M354.527 90.084C355.727 91.5017 358.17 94.8605 358.344 96.9543" stroke="#EBAE99" stroke-width="6.54314"/>
<path d="M342.75 77.6519C344.749 75.0346 350.122 71.3705 355.618 77.6519C356.999 79.8329 360.874 82.8863 365.324 77.6519C367.243 76.1688 371.576 75.7254 373.503 75.689" stroke="#EBAE99" stroke-width="6.54314"/>
<path d="M343.516 67.2918C345.26 64.8924 353.439 61.0766 372.414 72.0902" stroke="#F25430" stroke-width="6.54314"/>
<path d="M328.137 76.0156C330.354 79.1781 334.44 86.79 333.044 91.9373C332.899 92.8097 333.262 94.9689 335.879 96.6265C338.497 98.2841 338.424 108.804 338.06 113.857" stroke="#F27F42" stroke-width="6.54314"/>
<path d="M287.68 110.477C295.895 107.678 315.815 103.563 329.774 109.495" stroke="#F25430" stroke-width="6.54314"/>
<path d="M288.332 70.2363C289.75 72.7445 292.89 78.0227 294.112 79.0696" stroke="#EBAE99" stroke-width="6.54314"/>
<path d="M305.888 77.5554C307.622 76.773 312.174 75.2153 316.505 75.2434" stroke="#EBAE99" stroke-width="6.54314"/>
<path d="M289.531 55.5137C292.948 58.5308 297.165 65.4374 301.418 69.2543C305.126 65.3284 310.884 59.2214 319.957 69.2543C321.047 70.163 324.886 69.8431 331.516 61.2934" stroke="#EBAE99" stroke-width="6.54314"/>
<path d="M293.457 46.2461C295.711 49.8812 300.654 54.7522 308.506 50.9353C312.541 48.9739 317.121 55.7336 319.193 55.7336C321.265 55.7336 323.592 53.8798 325.736 52.4621" stroke="#F25430" stroke-width="6.54314"/>
<path d="M286.48 61.7313L297.386 37.7401C300.439 31.6329 309.97 25.7879 318.869 37.7401C325.739 52.6802 329.883 58.6781 332.61 60.7501C335.336 62.8221 344.496 75.145 341.879 85.5049C341.092 88.6214 344.823 91.5028 347.223 94.4472C349.622 97.3916 350.821 106.988 350.821 110.26C350.821 112.877 353.657 118.112 355.074 120.402" stroke="#282D26" stroke-width="6.54314"/>
<path d="M340.785 71.6554L347.001 60.9683C347.874 59.2598 350.709 55.6248 355.725 58.242C358.997 59.6592 358.779 48.3177 364.777 56.8238C370.775 65.3299 373.004 73.1161 373.828 74.5993C374.373 75.5808 380.153 82.0149 379.063 89.431C378.678 92.0477 382.625 93.6471 383.752 94.0106C386.151 95.8645 386.805 97.4572 387.678 102.081C388.55 106.705 390.004 115.567 390.622 119.42" stroke="#282D26" stroke-width="6.54314"/>
<path d="M378.301 80.2696C382.917 73.363 393.568 63.6937 399.239 80.2696C400.111 84.0865 401.856 87.14 403.383 87.6852C404.91 88.2305 412.87 90.5206 412.107 122.255" stroke="#282D26" stroke-width="6.54314"/>
<path d="M285.387 123.563C290.185 123.566 308.068 118.506 315.812 118.764C325.627 119.091 335.224 123.56 341.331 123.56C347.437 123.56 361.2 118.652 375.246 118.652C389.292 118.652 407.198 125.526 415.377 125.526" stroke="#D5C9C9" stroke-width="6.54314"/>
<path d="M287.242 30.6507C294.585 22.5081 314.396 12.5261 330.536 32.0682C335.4 37.9571 338.715 44.3912 340.896 49.6257C342.968 46.136 347.003 42.9735 352.564 46.2451C355.182 41.883 362.27 36.9103 372.303 47.99C374.157 51.1888 376.883 57.9137 378.083 60.531C379.464 56.8596 386.109 51.7196 401.638 60.531C404.801 62.6393 411.278 68.8844 411.889 76.9979" stroke="#94120D" stroke-width="6.54314"/>
<path d="M422.684 101.535C427.482 108.842 426.282 114.185 426.282 128.035" stroke="#675B2F" stroke-width="6.54314"/>
<path d="M418.616 60.425C425.632 61.0663 440.504 56.2391 437.446 39.7018" stroke="#D5C9C9" stroke-width="6.54314"/>
<path d="M123.479 26.5084C123.479 25.0344 123.97 23.7964 124.953 22.7944C125.955 21.7924 127.217 21.2915 128.739 21.2915C130.261 21.2915 131.519 21.7732 132.511 22.7366C133.513 23.7097 134.014 24.9669 134.014 26.5084C134.014 28.021 133.513 29.2686 132.511 30.2513C131.509 31.234 130.252 31.7254 128.739 31.7254C127.217 31.7254 125.96 31.2437 124.967 30.2802C123.975 29.3168 123.479 28.0595 123.479 26.5084ZM125.357 26.5084C125.357 27.5296 125.68 28.3775 126.326 29.0519C126.971 29.7263 127.776 30.0635 128.739 30.0635C129.78 30.0635 130.603 29.7263 131.21 29.0519C131.827 28.3775 132.135 27.5296 132.135 26.5084C132.135 25.4775 131.808 24.6249 131.152 23.9505C130.497 23.2857 129.693 22.9534 128.739 22.9534C127.766 22.9534 126.957 23.2857 126.311 23.9505C125.675 24.6153 125.357 25.4679 125.357 26.5084ZM137.628 23.1123H134.348V21.4504H142.686V23.1123H139.406V31.5664H137.628V23.1123ZM146.005 31.5664H144.228V21.4504H146.005V26.2483L149.994 21.4504H152.133L147.971 26.1616L152.393 31.5664H150.139L146.005 26.3494V31.5664ZM155.715 27.9102V31.5664H153.937V21.4504C154.361 21.4504 154.819 21.4456 155.31 21.436C155.811 21.4263 156.312 21.4215 156.813 21.4215C157.526 21.4215 158.143 21.513 158.663 21.6961C159.193 21.8695 159.602 22.1152 159.891 22.4331C160.18 22.7414 160.392 23.0834 160.527 23.4592C160.662 23.8253 160.73 24.2299 160.73 24.6731C160.73 25.5883 160.402 26.3639 159.747 26.9998C159.101 27.6356 158.196 27.9536 157.03 27.9536C156.442 27.9536 156.004 27.9391 155.715 27.9102ZM156.987 23.0834L155.715 23.1123V26.2194C156.226 26.2676 156.645 26.2916 156.972 26.2916C157.541 26.2916 157.993 26.1519 158.331 25.8725C158.677 25.5932 158.851 25.1885 158.851 24.6586C158.851 23.6085 158.23 23.0834 156.987 23.0834ZM161.964 26.5084C161.964 25.0344 162.455 23.7964 163.438 22.7944C164.44 21.7924 165.702 21.2915 167.224 21.2915C168.747 21.2915 170.004 21.7732 170.996 22.7366C171.998 23.7097 172.499 24.9669 172.499 26.5084C172.499 28.021 171.998 29.2686 170.996 30.2513C169.994 31.234 168.737 31.7254 167.224 31.7254C165.702 31.7254 164.445 31.2437 163.453 30.2802C162.46 29.3168 161.964 28.0595 161.964 26.5084ZM163.843 26.5084C163.843 27.5296 164.165 28.3775 164.811 29.0519C165.456 29.7263 166.261 30.0635 167.224 30.0635C168.265 30.0635 169.089 29.7263 169.696 29.0519C170.312 28.3775 170.62 27.5296 170.62 26.5084C170.62 25.4775 170.293 24.6249 169.638 23.9505C168.983 23.2857 168.178 22.9534 167.224 22.9534C166.251 22.9534 165.442 23.2857 164.797 23.9505C164.161 24.6153 163.843 25.4679 163.843 26.5084ZM181.421 24.3841L176.117 31.5664H174.556V21.4504H176.334V28.6472L181.637 21.4504H183.198V31.5664H181.421V24.3841ZM176.16 18.9937H177.822C177.938 19.5525 178.347 19.8319 179.05 19.8319C179.783 19.8319 180.168 19.5525 180.207 18.9937H181.869C181.859 19.6006 181.584 20.1016 181.045 20.4966C180.505 20.8724 179.84 21.0602 179.05 21.0602C178.203 21.0602 177.519 20.8772 176.998 20.5111C176.488 20.1353 176.208 19.6295 176.16 18.9937ZM188.025 23.1123H184.744V21.4504H193.083V23.1123H189.802V31.5664H188.025V23.1123ZM200.622 31.5664H194.624V21.4504H200.477V23.1123H196.402V25.6269H200.044V27.2888H196.402V29.9045H200.622V31.5664ZM214.164 31.5664H212.401V27.2454H207.777V31.5664H205.999V21.4504H207.777V25.5835H212.401V21.4504H214.164V31.5664ZM216.213 26.5084C216.213 25.0344 216.705 23.7964 217.687 22.7944C218.689 21.7924 219.951 21.2915 221.474 21.2915C222.996 21.2915 224.253 21.7732 225.245 22.7366C226.247 23.7097 226.748 24.9669 226.748 26.5084C226.748 28.021 226.247 29.2686 225.245 30.2513C224.243 31.234 222.986 31.7254 221.474 31.7254C219.951 31.7254 218.694 31.2437 217.702 30.2802C216.709 29.3168 216.213 28.0595 216.213 26.5084ZM218.092 26.5084C218.092 27.5296 218.415 28.3775 219.06 29.0519C219.706 29.7263 220.51 30.0635 221.474 30.0635C222.514 30.0635 223.338 29.7263 223.945 29.0519C224.561 28.3775 224.87 27.5296 224.87 26.5084C224.87 25.4775 224.542 24.6249 223.887 23.9505C223.232 23.2857 222.427 22.9534 221.474 22.9534C220.501 22.9534 219.691 23.2857 219.046 23.9505C218.41 24.6153 218.092 25.4679 218.092 26.5084ZM228.805 31.552V21.4793C229.846 21.4311 230.819 21.4071 231.725 21.4071C232.842 21.4071 233.675 21.6287 234.225 22.0718C234.774 22.515 235.048 23.1268 235.048 23.9072C235.048 24.9958 234.567 25.7618 233.603 26.2049V26.2338C234.152 26.3783 234.586 26.6529 234.904 27.0576C235.222 27.4526 235.381 27.9632 235.381 28.5894C235.381 29.5721 235.044 30.3236 234.369 30.8438C233.695 31.3641 232.779 31.6242 231.623 31.6242C230.467 31.6242 229.528 31.6001 228.805 31.552ZM231.84 27.2165H230.583V29.89C231.036 29.9382 231.426 29.9623 231.753 29.9623C232.987 29.9623 233.603 29.4758 233.603 28.5027C233.603 28.0788 233.449 27.7609 233.141 27.5489C232.832 27.3273 232.399 27.2165 231.84 27.2165ZM231.696 23.069C231.272 23.069 230.901 23.0834 230.583 23.1123V25.6702H231.782C232.235 25.6702 232.596 25.5546 232.866 25.3234C233.146 25.0922 233.285 24.7598 233.285 24.3262C233.285 23.9216 233.146 23.6133 232.866 23.4014C232.587 23.1798 232.197 23.069 231.696 23.069ZM247.407 31.5664H245.644V21.4504H247.407V31.5664ZM240.485 26.5084C240.331 26.5084 240.003 26.5325 239.502 26.5807V29.89C239.579 29.89 239.733 29.8997 239.965 29.9189C240.196 29.9286 240.36 29.9334 240.456 29.9334C241.785 29.9334 242.45 29.3409 242.45 28.1559C242.45 27.6164 242.282 27.2069 241.944 26.9275C241.607 26.6481 241.121 26.5084 240.485 26.5084ZM237.725 21.4504H239.502V24.9188C239.916 24.8706 240.292 24.8465 240.629 24.8465C241.834 24.8465 242.749 25.1355 243.375 25.7136C244.011 26.282 244.329 27.0817 244.329 28.1125C244.329 29.1916 243.963 30.0442 243.231 30.6704C242.508 31.287 241.511 31.5953 240.239 31.5953C239.7 31.5953 239.232 31.5905 238.837 31.5809C238.452 31.5712 238.081 31.5664 237.725 31.5664V21.4504ZM256.212 31.5664H250.214V21.4504H256.067V23.1123H251.992V25.6269H255.634V27.2888H251.992V29.9045H256.212V31.5664ZM96.8226 51.5664H95.0451V41.4504H100.753V43.1123H96.8226V51.5664ZM101.237 46.5084C101.237 45.0344 101.728 43.7964 102.711 42.7944C103.713 41.7924 104.975 41.2915 106.497 41.2915C108.02 41.2915 109.277 41.7732 110.269 42.7366C111.271 43.7097 111.772 44.9669 111.772 46.5084C111.772 48.021 111.271 49.2686 110.269 50.2513C109.267 51.234 108.01 51.7254 106.497 51.7254C104.975 51.7254 103.718 51.2437 102.726 50.2802C101.733 49.3168 101.237 48.0595 101.237 46.5084ZM103.116 46.5084C103.116 47.5296 103.439 48.3775 104.084 49.0519C104.729 49.7263 105.534 50.0635 106.497 50.0635C107.538 50.0635 108.362 49.7263 108.969 49.0519C109.585 48.3775 109.893 47.5296 109.893 46.5084C109.893 45.4775 109.566 44.6249 108.911 43.9505C108.256 43.2857 107.451 42.9534 106.497 42.9534C105.524 42.9534 104.715 43.2857 104.07 43.9505C103.434 44.6153 103.116 45.4679 103.116 46.5084ZM115.607 47.9102V51.5664H113.829V41.4504C114.253 41.4504 114.711 41.4456 115.202 41.436C115.703 41.4263 116.204 41.4215 116.705 41.4215C117.418 41.4215 118.034 41.513 118.555 41.6961C119.085 41.8695 119.494 42.1152 119.783 42.4331C120.072 42.7414 120.284 43.0834 120.419 43.4592C120.554 43.8253 120.621 44.2299 120.621 44.6731C120.621 45.5883 120.294 46.3639 119.639 46.9998C118.993 47.6356 118.087 47.9536 116.922 47.9536C116.334 47.9536 115.896 47.9391 115.607 47.9102ZM116.878 43.0834L115.607 43.1123V46.2194C116.117 46.2676 116.536 46.2916 116.864 46.2916C117.432 46.2916 117.885 46.1519 118.222 45.8725C118.569 45.5932 118.743 45.1885 118.743 44.6586C118.743 43.6085 118.121 43.0834 116.878 43.0834ZM129.542 44.3841L124.239 51.5664H122.678V41.4504H124.455V48.6472L129.759 41.4504H131.32V51.5664H129.542V44.3841ZM136.696 51.7254C135.915 51.7254 135.221 51.5664 134.615 51.2485C134.017 50.9305 133.555 50.5211 133.227 50.0201L134.195 48.8206C134.513 49.1867 134.894 49.4854 135.337 49.7166C135.78 49.9478 136.204 50.0635 136.609 50.0635C137.158 50.0635 137.606 49.9334 137.953 49.6733C138.3 49.4035 138.473 49.0326 138.473 48.5605C138.473 48.1462 138.314 47.8235 137.996 47.5923C137.688 47.3514 137.25 47.231 136.681 47.231H135.641V45.5691H136.623C137.028 45.5691 137.37 45.4486 137.649 45.2078C137.938 44.9573 138.083 44.6345 138.083 44.2395C138.083 43.8349 137.948 43.5218 137.678 43.3002C137.418 43.069 137.062 42.9534 136.609 42.9534C135.79 42.9534 135.106 43.3195 134.557 44.0517L133.531 42.8667C133.878 42.3946 134.345 42.014 134.932 41.725C135.52 41.436 136.146 41.2915 136.811 41.2915C137.736 41.2915 138.473 41.5371 139.022 42.0285C139.571 42.5198 139.846 43.199 139.846 44.0661C139.846 44.49 139.726 44.9043 139.485 45.3089C139.253 45.7136 138.921 46.0411 138.488 46.2916V46.335C139.066 46.4795 139.499 46.7637 139.788 47.1876C140.087 47.6019 140.236 48.1173 140.236 48.7339C140.236 49.6299 139.884 50.3525 139.181 50.9016C138.488 51.4508 137.659 51.7254 136.696 51.7254ZM141.825 46.5084C141.825 45.0344 142.317 43.7964 143.299 42.7944C144.301 41.7924 145.563 41.2915 147.086 41.2915C148.608 41.2915 149.865 41.7732 150.857 42.7366C151.859 43.7097 152.36 44.9669 152.36 46.5084C152.36 48.021 151.859 49.2686 150.857 50.2513C149.855 51.234 148.598 51.7254 147.086 51.7254C145.563 51.7254 144.306 51.2437 143.314 50.2802C142.321 49.3168 141.825 48.0595 141.825 46.5084ZM143.704 46.5084C143.704 47.5296 144.027 48.3775 144.672 49.0519C145.318 49.7263 146.122 50.0635 147.086 50.0635C148.126 50.0635 148.95 49.7263 149.557 49.0519C150.173 48.3775 150.482 47.5296 150.482 46.5084C150.482 45.4775 150.154 44.6249 149.499 43.9505C148.844 43.2857 148.039 42.9534 147.086 42.9534C146.112 42.9534 145.303 43.2857 144.658 43.9505C144.022 44.6153 143.704 45.4679 143.704 46.5084ZM162.582 51.5664H160.819V47.2454H156.195V51.5664H154.417V41.4504H156.195V45.5835H160.819V41.4504H162.582V51.5664ZM167.406 43.1123H164.126V41.4504H172.464V43.1123H169.184V51.5664H167.406V43.1123ZM183.688 51.5664H181.925V41.4504H183.688V51.5664ZM176.766 46.5084C176.612 46.5084 176.284 46.5325 175.783 46.5807V49.89C175.86 49.89 176.014 49.8997 176.246 49.9189C176.477 49.9286 176.641 49.9334 176.737 49.9334C178.067 49.9334 178.731 49.3409 178.731 48.1559C178.731 47.6164 178.563 47.2069 178.226 46.9275C177.888 46.6481 177.402 46.5084 176.766 46.5084ZM174.006 41.4504H175.783V44.9188C176.197 44.8706 176.573 44.8465 176.91 44.8465C178.115 44.8465 179.03 45.1355 179.656 45.7136C180.292 46.282 180.61 47.0817 180.61 48.1125C180.61 49.1916 180.244 50.0442 179.512 50.6704C178.789 51.287 177.792 51.5953 176.52 51.5953C175.981 51.5953 175.513 51.5905 175.118 51.5809C174.733 51.5712 174.362 51.5664 174.006 51.5664V41.4504ZM196.581 49.2542L197.26 50.5837C196.943 50.9209 196.485 51.1955 195.888 51.4074C195.3 51.6194 194.679 51.7254 194.023 51.7254C192.482 51.7254 191.225 51.2485 190.252 50.2947C189.288 49.3409 188.806 48.0788 188.806 46.5084C188.806 45.0055 189.264 43.7578 190.179 42.7655C191.085 41.7828 192.352 41.2915 193.98 41.2915C195.271 41.2915 196.297 41.6335 197.058 42.3175L196.263 43.6326C195.579 43.1798 194.818 42.9534 193.98 42.9534C193.017 42.9534 192.227 43.2761 191.61 43.9216C190.993 44.5671 190.685 45.4294 190.685 46.5084C190.685 47.5682 191.008 48.4256 191.653 49.0808C192.308 49.7359 193.151 50.0635 194.182 50.0635C195.069 50.0635 195.868 49.7937 196.581 49.2542ZM208.954 44.3841L203.651 51.5664H202.09V41.4504H203.867V48.6472L209.171 41.4504H210.732V51.5664H208.954V44.3841ZM203.694 38.9937H205.356C205.472 39.5525 205.881 39.8319 206.584 39.8319C207.317 39.8319 207.702 39.5525 207.74 38.9937H209.402C209.393 39.6006 209.118 40.1016 208.579 40.4966C208.039 40.8724 207.374 41.0602 206.584 41.0602C205.737 41.0602 205.053 40.8772 204.532 40.5111C204.022 40.1353 203.742 39.6295 203.694 38.9937ZM212.784 46.5084C212.784 45.0344 213.275 43.7964 214.258 42.7944C215.26 41.7924 216.522 41.2915 218.044 41.2915C219.566 41.2915 220.824 41.7732 221.816 42.7366C222.818 43.7097 223.319 44.9669 223.319 46.5084C223.319 48.021 222.818 49.2686 221.816 50.2513C220.814 51.234 219.557 51.7254 218.044 51.7254C216.522 51.7254 215.265 51.2437 214.272 50.2802C213.28 49.3168 212.784 48.0595 212.784 46.5084ZM214.663 46.5084C214.663 47.5296 214.985 48.3775 215.631 49.0519C216.276 49.7263 217.081 50.0635 218.044 50.0635C219.085 50.0635 219.908 49.7263 220.515 49.0519C221.132 48.3775 221.44 47.5296 221.44 46.5084C221.44 45.4775 221.113 44.6249 220.458 43.9505C219.802 43.2857 218.998 42.9534 218.044 42.9534C217.071 42.9534 216.262 43.2857 215.616 43.9505C214.981 44.6153 214.663 45.4679 214.663 46.5084ZM227.153 51.5664H225.376V41.4504H231.084V43.1123H227.153V51.5664ZM231.568 46.5084C231.568 45.0344 232.059 43.7964 233.042 42.7944C234.044 41.7924 235.306 41.2915 236.828 41.2915C238.35 41.2915 239.608 41.7732 240.6 42.7366C241.602 43.7097 242.103 44.9669 242.103 46.5084C242.103 48.021 241.602 49.2686 240.6 50.2513C239.598 51.234 238.341 51.7254 236.828 51.7254C235.306 51.7254 234.049 51.2437 233.056 50.2802C232.064 49.3168 231.568 48.0595 231.568 46.5084ZM233.447 46.5084C233.447 47.5296 233.769 48.3775 234.415 49.0519C235.06 49.7263 235.865 50.0635 236.828 50.0635C237.869 50.0635 238.692 49.7263 239.299 49.0519C239.916 48.3775 240.224 47.5296 240.224 46.5084C240.224 45.4775 239.897 44.6249 239.242 43.9505C238.586 43.2857 237.782 42.9534 236.828 42.9534C235.855 42.9534 235.046 43.2857 234.4 43.9505C233.765 44.6153 233.447 45.4679 233.447 46.5084ZM251.024 44.3841L245.721 51.5664H244.16V41.4504H245.937V48.6472L251.241 41.4504H252.802V51.5664H251.024V44.3841ZM245.764 38.9937H247.426C247.542 39.5525 247.951 39.8319 248.654 39.8319C249.387 39.8319 249.772 39.5525 249.81 38.9937H251.472C251.463 39.6006 251.188 40.1016 250.649 40.4966C250.109 40.8724 249.444 41.0602 248.654 41.0602C247.807 41.0602 247.122 40.8772 246.602 40.5111C246.092 40.1353 245.812 39.6295 245.764 38.9937ZM254.854 50.4826C254.854 50.2032 254.96 49.9575 255.172 49.7455C255.393 49.5239 255.673 49.4131 256.01 49.4131C256.299 49.4131 256.545 49.5239 256.747 49.7455C256.959 49.9575 257.065 50.2032 257.065 50.4826C257.065 50.8005 256.959 51.0751 256.747 51.3063C256.545 51.5279 256.299 51.6387 256.01 51.6387C255.673 51.6387 255.393 51.5279 255.172 51.3063C254.96 51.0751 254.854 50.8005 254.854 50.4826ZM104.337 71.5664H102.559V63.1123H98.0504V71.5664H96.2729V61.4504H104.337V71.5664ZM108.917 67.9102V71.5664H107.14V61.4504C107.564 61.4504 108.021 61.4456 108.513 61.436C109.014 61.4263 109.515 61.4215 110.016 61.4215C110.728 61.4215 111.345 61.513 111.865 61.6961C112.395 61.8695 112.805 62.1152 113.094 62.4331C113.383 62.7414 113.595 63.0834 113.73 63.4592C113.864 63.8253 113.932 64.2299 113.932 64.6731C113.932 65.5883 113.604 66.3639 112.949 66.9998C112.304 67.6356 111.398 67.9536 110.232 67.9536C109.645 67.9536 109.206 67.9391 108.917 67.9102ZM110.189 63.0834L108.917 63.1123V66.2194C109.428 66.2676 109.847 66.2916 110.174 66.2916C110.743 66.2916 111.196 66.1519 111.533 65.8725C111.88 65.5932 112.053 65.1885 112.053 64.6586C112.053 63.6085 111.432 63.0834 110.189 63.0834ZM122.853 64.3841L117.549 71.5664H115.988V61.4504H117.766V68.6472L123.07 61.4504H124.63V71.5664H122.853V64.3841ZM134.457 69.2542L135.136 70.5837C134.818 70.9209 134.361 71.1955 133.763 71.4074C133.176 71.6194 132.554 71.7254 131.899 71.7254C130.358 71.7254 129.1 71.2485 128.127 70.2947C127.164 69.3409 126.682 68.0788 126.682 66.5084C126.682 65.0055 127.14 63.7578 128.055 62.7655C128.961 61.7828 130.228 61.2915 131.856 61.2915C133.147 61.2915 134.173 61.6335 134.934 62.3175L134.139 63.6326C133.455 63.1798 132.694 62.9534 131.856 62.9534C130.892 62.9534 130.102 63.2761 129.486 63.9216C128.869 64.5671 128.561 65.4294 128.561 66.5084C128.561 67.5682 128.884 68.4256 129.529 69.0808C130.184 69.7359 131.027 70.0635 132.058 70.0635C132.945 70.0635 133.744 69.7937 134.457 69.2542ZM135.729 66.5084C135.729 65.0344 136.22 63.7964 137.203 62.7944C138.205 61.7924 139.467 61.2915 140.989 61.2915C142.511 61.2915 143.768 61.7732 144.761 62.7366C145.763 63.7097 146.264 64.9669 146.264 66.5084C146.264 68.021 145.763 69.2686 144.761 70.2513C143.759 71.234 142.501 71.7254 140.989 71.7254C139.467 71.7254 138.209 71.2437 137.217 70.2802C136.225 69.3168 135.729 68.0595 135.729 66.5084ZM137.607 66.5084C137.607 67.5296 137.93 68.3775 138.575 69.0519C139.221 69.7263 140.025 70.0635 140.989 70.0635C142.029 70.0635 142.853 69.7263 143.46 69.0519C144.077 68.3775 144.385 67.5296 144.385 66.5084C144.385 65.4775 144.057 64.6249 143.402 63.9505C142.747 63.2857 141.943 62.9534 140.989 62.9534C140.016 62.9534 139.207 63.2857 138.561 63.9505C137.925 64.6153 137.607 65.4679 137.607 66.5084ZM154.318 71.5664H148.321V61.4504H154.173V63.1123H150.098V65.6269H153.74V67.2888H150.098V69.9045H154.318V71.5664ZM157.066 73.3728H155.405V69.9045H156.488C156.777 69.5673 157.091 68.8206 157.428 67.6645C157.775 66.4795 157.982 65.0825 158.049 63.4736L158.15 61.4504H164.422V69.9045H165.795V73.3728H164.133V71.5664H157.066V73.3728ZM159.87 63.1123L159.711 64.8754C159.624 66.0893 159.446 67.1539 159.176 68.0692C158.897 69.023 158.651 69.6347 158.439 69.9045H162.659V63.1123H159.87ZM174.421 64.3841L169.117 71.5664H167.556V61.4504H169.334V68.6472L174.637 61.4504H176.198V71.5664H174.421V64.3841ZM187.167 71.5664H185.404V67.2454H180.779V71.5664H179.002V61.4504H180.779V65.5835H185.404V61.4504H187.167V71.5664ZM196.297 71.5664H194.534V68.0692H193.074L190.805 71.5664H188.811L191.398 67.7079C190.858 67.4381 190.425 67.0624 190.097 66.5807C189.779 66.099 189.62 65.5402 189.62 64.9043C189.62 63.8927 189.967 63.0593 190.661 62.4042C191.355 61.7394 192.395 61.4071 193.782 61.4071C193.802 61.4071 194.226 61.4167 195.054 61.436C195.478 61.4456 195.892 61.4504 196.297 61.4504V71.5664ZM192.915 66.4073H194.534V63.1123C194.042 63.0834 193.672 63.069 193.421 63.069C192.843 63.069 192.376 63.2279 192.019 63.5459C191.672 63.8638 191.499 64.2781 191.499 64.7887C191.499 65.2126 191.629 65.5691 191.889 65.8581C192.159 66.1375 192.501 66.3205 192.915 66.4073ZM205.963 64.3841L200.659 71.5664H199.098V61.4504H200.876V68.6472L206.179 61.4504H207.74V71.5664H205.963V64.3841ZM200.702 58.9937H202.364C202.48 59.5525 202.889 59.8319 203.592 59.8319C204.325 59.8319 204.71 59.5525 204.749 58.9937H206.411C206.401 59.6006 206.126 60.1016 205.587 60.4966C205.047 60.8724 204.382 61.0602 203.592 61.0602C202.745 61.0602 202.061 60.8772 201.54 60.5111C201.03 60.1353 200.75 59.6295 200.702 58.9937ZM212.567 63.1123H209.286V61.4504H217.625V63.1123H214.344V71.5664H212.567V63.1123ZM225.164 71.5664H219.166V61.4504H225.019V63.1123H220.944V65.6269H224.586V67.2888H220.944V69.9045H225.164V71.5664ZM234.502 69.2542L235.181 70.5837C234.863 70.9209 234.406 71.1955 233.808 71.4074C233.221 71.6194 232.599 71.7254 231.944 71.7254C230.403 71.7254 229.145 71.2485 228.172 70.2947C227.209 69.3409 226.727 68.0788 226.727 66.5084C226.727 65.0055 227.185 63.7578 228.1 62.7655C229.006 61.7828 230.273 61.2915 231.901 61.2915C233.192 61.2915 234.218 61.6335 234.979 62.3175L234.184 63.6326C233.5 63.1798 232.739 62.9534 231.901 62.9534C230.937 62.9534 230.147 63.2761 229.531 63.9216C228.914 64.5671 228.606 65.4294 228.606 66.5084C228.606 67.5682 228.929 68.4256 229.574 69.0808C230.229 69.7359 231.072 70.0635 232.103 70.0635C232.99 70.0635 233.789 69.7937 234.502 69.2542ZM239.737 66.5084C239.564 66.5084 239.227 66.5325 238.726 66.5807V69.89C239.362 69.9189 239.689 69.9334 239.709 69.9334C241.115 69.9334 241.818 69.3409 241.818 68.1559C241.818 67.6164 241.635 67.2069 241.269 66.9275C240.903 66.6481 240.393 66.5084 239.737 66.5084ZM236.948 61.4504H238.726V64.9188C239.14 64.8706 239.526 64.8465 239.882 64.8465C241.134 64.8465 242.083 65.1307 242.729 65.6991C243.374 66.2676 243.697 67.072 243.697 68.1125C243.697 69.1916 243.326 70.0442 242.584 70.6704C241.852 71.287 240.826 71.5953 239.506 71.5953C238.947 71.5953 238.471 71.5905 238.076 71.5809C237.681 71.5712 237.305 71.5664 236.948 71.5664V61.4504ZM250.595 71.5664H248.817V61.4504H250.595V66.2483L254.583 61.4504H256.722L252.56 66.1616L256.982 71.5664H254.728L250.595 66.3494V71.5664ZM139.917 91.5664H138.154V87.2454H133.53V91.5664H131.752V81.4504H133.53V85.5835H138.154V81.4504H139.917V91.5664ZM143.209 91.5664H141.417L145.695 81.4215H147.256L151.533 91.5664H149.64L148.585 88.9796H144.264L143.209 91.5664ZM147.906 87.3177L146.432 83.7193L144.943 87.3177H147.906ZM154.826 91.5664H153.048V81.4504H154.84L158.294 86.176L161.589 81.4504H163.265V91.5664H161.502V84.254L158.309 88.7484H158.049L154.826 84.2973V91.5664ZM176.001 84.3841L170.698 91.5664H169.137V81.4504H170.914V88.6472L176.218 81.4504H177.779V91.5664H176.001V84.3841ZM182.893 86.5084C182.893 85.0344 183.385 83.7964 184.367 82.7944C185.369 81.7924 186.631 81.2915 188.154 81.2915C189.676 81.2915 190.933 81.7732 191.925 82.7366C192.927 83.7097 193.428 84.9669 193.428 86.5084C193.428 88.021 192.927 89.2686 191.925 90.2513C190.923 91.234 189.666 91.7254 188.154 91.7254C186.631 91.7254 185.374 91.2437 184.382 90.2802C183.389 89.3168 182.893 88.0595 182.893 86.5084ZM184.772 86.5084C184.772 87.5296 185.095 88.3775 185.74 89.0519C186.386 89.7263 187.19 90.0635 188.154 90.0635C189.194 90.0635 190.018 89.7263 190.625 89.0519C191.241 88.3775 191.55 87.5296 191.55 86.5084C191.55 85.4775 191.222 84.6249 190.567 83.9505C189.912 83.2857 189.107 82.9534 188.154 82.9534C187.18 82.9534 186.371 83.2857 185.726 83.9505C185.09 84.6153 184.772 85.4679 184.772 86.5084ZM195.485 91.5664V81.4504H201.396V83.1123H197.263V85.3668C197.658 85.3089 198.111 85.28 198.621 85.28C199.671 85.28 200.5 85.5546 201.107 86.1038C201.714 86.6529 202.017 87.3948 202.017 88.3293C202.017 89.3794 201.675 90.1935 200.991 90.7716C200.317 91.34 199.358 91.6242 198.115 91.6242C197.884 91.6242 197.374 91.6146 196.584 91.5953C196.429 91.5953 196.266 91.5905 196.092 91.5809C195.919 91.5809 195.784 91.576 195.688 91.5664C195.601 91.5664 195.533 91.5664 195.485 91.5664ZM198.477 86.942C198.111 86.942 197.706 86.9709 197.263 87.0287V89.9045C197.735 89.943 198.111 89.9623 198.39 89.9623C199.633 89.9623 200.254 89.4613 200.254 88.4594C200.254 87.9873 200.105 87.6164 199.806 87.3466C199.508 87.0768 199.064 86.942 198.477 86.942ZM206.14 87.9102V91.5664H204.362V81.4504C204.786 81.4504 205.244 81.4456 205.735 81.436C206.236 81.4263 206.737 81.4215 207.238 81.4215C207.951 81.4215 208.567 81.513 209.088 81.6961C209.618 81.8695 210.027 82.1152 210.316 82.4331C210.605 82.7414 210.817 83.0834 210.952 83.4592C211.087 83.8253 211.154 84.2299 211.154 84.6731C211.154 85.5883 210.827 86.3639 210.172 86.9998C209.526 87.6356 208.62 87.9536 207.455 87.9536C206.867 87.9536 206.429 87.9391 206.14 87.9102ZM207.411 83.0834L206.14 83.1123V86.2194C206.65 86.2676 207.069 86.2916 207.397 86.2916C207.965 86.2916 208.418 86.1519 208.755 85.8725C209.102 85.5932 209.276 85.1885 209.276 84.6586C209.276 83.6085 208.654 83.0834 207.411 83.0834ZM219.208 91.5664H213.211V81.4504H219.064V83.1123H214.988V85.6269H218.63V87.2888H214.988V89.9045H219.208V91.5664ZM223.546 83.1123H220.266V81.4504H228.604V83.1123H225.324V91.5664H223.546V83.1123ZM237.01 84.3841L231.707 91.5664H230.146V81.4504H231.924V88.6472L237.227 81.4504H238.788V91.5664H237.01V84.3841ZM243.615 83.1123H240.334V81.4504H248.673V83.1123H245.392V91.5664H243.615V83.1123ZM256.212 91.5664H250.214V81.4504H256.067V83.1123H251.992V85.6269H255.634V87.2888H251.992V89.9045H256.212V91.5664ZM172.156 111.566H170.379V101.45H176.087V103.112H172.156V111.566ZM176.939 111.566H175.147L179.424 101.422H180.985L185.263 111.566H183.369L182.314 108.98H177.993L176.939 111.566ZM181.635 107.318L180.161 103.719L178.673 107.318H181.635ZM188.555 107.91V111.566H186.778V101.45C187.202 101.45 187.659 101.446 188.151 101.436C188.652 101.426 189.153 101.422 189.654 101.422C190.366 101.422 190.983 101.513 191.503 101.696C192.033 101.87 192.443 102.115 192.732 102.433C193.021 102.741 193.233 103.083 193.368 103.459C193.502 103.825 193.57 104.23 193.57 104.673C193.57 105.588 193.242 106.364 192.587 107C191.942 107.636 191.036 107.954 189.87 107.954C189.283 107.954 188.844 107.939 188.555 107.91ZM189.827 103.083L188.555 103.112V106.219C189.066 106.268 189.485 106.292 189.812 106.292C190.381 106.292 190.834 106.152 191.171 105.873C191.518 105.593 191.691 105.189 191.691 104.659C191.691 103.608 191.07 103.083 189.827 103.083ZM197.404 111.566H195.626V101.45H197.418L200.872 106.176L204.167 101.45H205.844V111.566H204.08V104.254L200.887 108.748H200.627L197.404 104.297V111.566ZM207.901 106.508C207.901 105.034 208.392 103.796 209.375 102.794C210.377 101.792 211.639 101.291 213.161 101.291C214.683 101.291 215.941 101.773 216.933 102.737C217.935 103.71 218.436 104.967 218.436 106.508C218.436 108.021 217.935 109.269 216.933 110.251C215.931 111.234 214.674 111.725 213.161 111.725C211.639 111.725 210.382 111.244 209.389 110.28C208.397 109.317 207.901 108.06 207.901 106.508ZM209.78 106.508C209.78 107.53 210.102 108.377 210.748 109.052C211.393 109.726 212.198 110.063 213.161 110.063C214.202 110.063 215.025 109.726 215.632 109.052C216.249 108.377 216.557 107.53 216.557 106.508C216.557 105.478 216.23 104.625 215.575 103.951C214.919 103.286 214.115 102.953 213.161 102.953C212.188 102.953 211.379 103.286 210.733 103.951C210.098 104.615 209.78 105.468 209.78 106.508ZM228.658 111.566H226.895V107.245H222.27V111.566H220.493V101.45H222.27V105.584H226.895V101.45H228.658V111.566ZM238.323 104.384L233.019 111.566H231.459V101.45H233.236V108.647L238.54 101.45H240.1V111.566H238.323V104.384ZM244.681 111.566H242.904V101.45H244.681V105.584H246.401C246.594 104.321 247.133 103.291 248.02 102.491C248.925 101.691 250.033 101.291 251.344 101.291C252.856 101.291 254.089 101.773 255.043 102.737C255.997 103.69 256.474 104.948 256.474 106.508C256.474 108.04 255.992 109.293 255.029 110.266C254.075 111.239 252.846 111.725 251.344 111.725C250.043 111.725 248.925 111.316 247.991 110.497C247.076 109.678 246.536 108.594 246.372 107.245H244.681V111.566ZM248.208 106.508C248.208 107.52 248.516 108.363 249.132 109.037C249.759 109.721 250.515 110.063 251.401 110.063C252.423 110.063 253.208 109.731 253.757 109.066C254.316 108.411 254.595 107.559 254.595 106.508C254.595 105.449 254.301 104.596 253.714 103.951C253.116 103.286 252.346 102.953 251.401 102.953C250.486 102.953 249.725 103.286 249.118 103.951C248.511 104.615 248.208 105.468 248.208 106.508Z" fill="#D5C9C9"/>
</svg>
