<svg width="1474" height="138" viewBox="0 0 1474 138" fill="none" xmlns="http://www.w3.org/2000/svg">
<path d="M1049.62 60.2941C1050.28 45.9049 1051.2 11.6501 1049.62 10.4661C1048.04 9.2821 996.341 9.97316 976.607 10.4665" stroke="#282D26" stroke-width="14.8003"/>
<path d="M769.649 53.3884C769.649 39.0814 769.649 11.6146 769.649 9.64126C769.649 7.75436 744.489 8.49467 725.002 8.49472" stroke="#D5C9C9" stroke-width="14.8003"/>
<path d="M1466 101.242V135.283" stroke="#D5C9C9" stroke-width="14.8003"/>
<path d="M703.002 1V16.2936" stroke="#D5C9C9" stroke-width="14.8003"/>
<path d="M848.092 75.5879V128.129" stroke="#2F4822" stroke-width="14.8003"/>
<path d="M807.143 36.6133V107.161" stroke="#94120D" stroke-width="14.8003"/>
<path d="M1115.48 115.549V131.582" stroke="#675B2F" stroke-width="14.8003"/>
<path d="M1308.87 98.2812V137.502" stroke="#675B2F" stroke-width="14.8003"/>
<path d="M1343.41 98.2812V136.022" stroke="#F25430" stroke-width="14.8003"/>
<path d="M1084.4 19.3477V51.4149" stroke="#F27F42" stroke-width="14.8003"/>
<path d="M1148.54 19.3477V51.4149" stroke="#F27F42" stroke-width="14.8003"/>
<path d="M1117.95 19.3477V51.4149" stroke="#F27F42" stroke-width="14.8003"/>
<path d="M1399.65 15.4003C1451.94 14.8083 1465.67 14.9065 1466 16.1398V94.5817" stroke="#282D26" stroke-width="14.8003"/>
<path d="M1371.28 8C1371.48 43.9153 1370.71 57.0876 1371.77 57.0876H1431.96" stroke="#F27F42" stroke-width="14.8003"/>
<path d="M1372.27 91.375H1434.68" stroke="#D5C9C9" stroke-width="14.8003"/>
<path d="M1216.37 84.4688H1240.05" stroke="#675B2F" stroke-width="14.8003"/>
<path d="M1214.15 121.469H1243.01" stroke="#F27F42" stroke-width="14.8003"/>
<path d="M1182.33 47.2207H1236.1" stroke="#94120D" stroke-width="14.8003"/>
<path d="M1093.78 84.4688H1180.36" stroke="#F25430" stroke-width="14.8003"/>
<path d="M1139.66 123.936H1170.74H1183.32H1194.66" stroke="#282D26" stroke-width="14.8003"/>
<path d="M837.484 45H920.119" stroke="#F25430" stroke-width="14.8003"/>
<path d="M799.004 8.98633H886.819" stroke="#F27F42" stroke-width="14.8003"/>
<path d="M910.252 11.6992H955.639" stroke="#675B2F" stroke-width="14.8003"/>
<path d="M989.434 45H1026.68" stroke="#94120D" stroke-width="14.8003"/>
<path d="M940.592 45H967.972" stroke="#2F4822" stroke-width="14.8003"/>
<path d="M1377.94 125.908H1435.66" stroke="#94120D" stroke-width="14.8003"/>
<path d="M1337.49 13.4258C1337.88 40.8556 1336.91 59.4711 1336.75 65.7201C1336.66 68.9268 1336.25 75.0936 1335.02 75.0936C1333.2 75.0936 1298.02 75.0936 1280.26 75.0936H1272.12C1270.39 75.0936 1269.16 79.287 1269.16 92.3605C1269.16 105.584 1269.08 124.346 1269.16 132.075" stroke="#D5C9C9" stroke-width="14.8003"/>
<path d="M1191.21 13.4275C1221.96 12.3586 1287.1 9.62323 1298.51 13.674C1306.16 16.3869 1306.16 42.7808 1306.16 53.8814" stroke="#F25430" stroke-width="14.8003"/>
<path d="M1264.96 15.8945V55.1152" stroke="#F25430" stroke-width="14.8003"/>
<path d="M737.002 107V125.747" stroke="#282D26" stroke-width="14.8003"/>
<path d="M770.637 70.4082V113.576" stroke="#675B2F" stroke-width="14.8003"/>
<path d="M1064.92 127.637C1064.92 111.356 1062.16 82.9447 1045.92 81.7566C1025.69 80.2765 1029.15 101.243 1023.23 113.33C1017.31 125.417 996.428 132.269 987.214 113.33C978.334 95.0764 976.762 86.651 974.387 83.729C971.181 79.7826 959.587 76.8221 953.174 83.729C947.457 89.8857 939.113 121.471 939.113 127.637" stroke="#675B2F" stroke-width="14.8003"/>
<path d="M876.951 120.481C886.078 120.481 910.992 114.047 910.992 96.7289C910.992 73.6133 879.171 73.6131 876.951 73.6133" stroke="#D5C9C9" stroke-width="14.8003"/>
<path d="M1071.08 11.9473H1165.06" stroke="#D5C9C9" stroke-width="14.8003"/>
<path d="M424.382 60.2941C423.724 45.9049 422.803 11.6501 424.382 10.4661C425.961 9.2821 477.663 9.97316 497.396 10.4665" stroke="#282D26" stroke-width="14.8003"/>
<path d="M8.00195 101.242V135.283" stroke="#D5C9C9" stroke-width="14.8003"/>
<path d="M697.002 94V109.294" stroke="#D5C9C9" stroke-width="14.8003"/>
<path d="M625.912 75.5879V128.129" stroke="#2F4822" stroke-width="14.8003"/>
<path d="M666.861 36.6133V107.161" stroke="#94120D" stroke-width="14.8003"/>
<path d="M358.521 115.549V131.582" stroke="#675B2F" stroke-width="14.8003"/>
<path d="M165.131 98.2812V137.502" stroke="#675B2F" stroke-width="14.8003"/>
<path d="M130.598 98.2812V136.022" stroke="#F25430" stroke-width="14.8003"/>
<path d="M389.602 19.3477V51.4149" stroke="#F27F42" stroke-width="14.8003"/>
<path d="M325.467 19.3477V51.4149" stroke="#F27F42" stroke-width="14.8003"/>
<path d="M356.055 19.3477V51.4149" stroke="#F27F42" stroke-width="14.8003"/>
<path d="M74.3574 15.4003C22.0631 14.8083 8.33179 14.9065 8.00289 16.1398V94.5817" stroke="#282D26" stroke-width="14.8003"/>
<path d="M102.723 8C102.526 43.9153 103.299 57.0876 102.23 57.0876H42.042" stroke="#F27F42" stroke-width="14.8003"/>
<path d="M101.736 91.375H39.3285" stroke="#D5C9C9" stroke-width="14.8003"/>
<path d="M257.633 84.4688H233.952" stroke="#675B2F" stroke-width="14.8003"/>
<path d="M259.854 121.469H230.993" stroke="#F27F42" stroke-width="14.8003"/>
<path d="M291.674 47.2207H237.9" stroke="#94120D" stroke-width="14.8003"/>
<path d="M380.229 84.4688H293.647" stroke="#F25430" stroke-width="14.8003"/>
<path d="M334.348 123.936H303.267H290.687H279.34" stroke="#282D26" stroke-width="14.8003"/>
<path d="M636.52 45H553.885" stroke="#F25430" stroke-width="14.8003"/>
<path d="M675 8.98633H587.185" stroke="#F27F42" stroke-width="14.8003"/>
<path d="M563.752 11.6992H518.364" stroke="#675B2F" stroke-width="14.8003"/>
<path d="M484.57 45H447.323" stroke="#94120D" stroke-width="14.8003"/>
<path d="M533.412 45H506.032" stroke="#2F4822" stroke-width="14.8003"/>
<path d="M96.0645 125.908H38.3434" stroke="#94120D" stroke-width="14.8003"/>
<path d="M136.518 13.4258C136.124 40.8556 137.094 59.4711 137.258 65.7201C137.343 68.9268 137.752 75.0936 138.985 75.0936C140.805 75.0936 175.986 75.0936 193.746 75.0936H201.886C203.613 75.0936 204.846 79.287 204.846 92.3605C204.846 105.584 204.929 124.346 204.846 132.075" stroke="#D5C9C9" stroke-width="14.8003"/>
<path d="M282.793 13.4275C252.041 12.3586 186.909 9.62323 175.491 13.674C167.844 16.3869 167.844 42.7808 167.844 53.8814" stroke="#F25430" stroke-width="14.8003"/>
<path d="M209.039 15.8945V55.1152" stroke="#F25430" stroke-width="14.8003"/>
<path d="M737.002 55V73.747" stroke="#282D26" stroke-width="14.8003"/>
<path d="M697.002 27V70.1674" stroke="#675B2F" stroke-width="14.8003"/>
<path d="M409.088 127.637C409.088 111.356 411.845 82.9447 428.082 81.7566C448.309 80.2765 444.856 101.243 450.776 113.33C456.696 125.417 477.576 132.269 486.79 113.33C495.67 95.0764 497.242 86.651 499.617 83.729C502.823 79.7826 514.417 76.8221 520.83 83.729C526.547 89.8857 534.891 121.471 534.891 127.637" stroke="#675B2F" stroke-width="14.8003"/>
<path d="M597.053 120.481C587.926 120.481 563.012 114.047 563.012 96.7289C563.012 73.6133 594.833 73.6131 597.053 73.6133" stroke="#D5C9C9" stroke-width="14.8003"/>
<path d="M402.922 11.9473H308.94" stroke="#D5C9C9" stroke-width="14.8003"/>
</svg>
