<svg width="164" height="154" viewBox="0 0 164 154" fill="none" xmlns="http://www.w3.org/2000/svg">
<path d="M73.2828 4.84237C74.1586 3.36899 75.4131 2.14648 76.9213 1.29681C78.4294 0.447138 80.1384 0 81.8778 0C83.6172 0 85.3263 0.447138 86.8344 1.29681C88.3425 2.14648 89.5971 3.36899 90.4728 4.84237L112.716 42.2778L155.914 51.4532C157.613 51.8152 159.186 52.6076 160.476 53.7513C161.765 54.895 162.726 56.35 163.263 57.9715C163.8 59.5929 163.895 61.324 163.536 62.9922C163.178 64.6604 162.38 66.2075 161.222 67.4791L131.777 99.7884L136.233 142.896C136.409 144.593 136.128 146.306 135.417 147.864C134.706 149.421 133.591 150.769 132.183 151.772C130.776 152.774 129.124 153.398 127.394 153.579C125.663 153.76 123.914 153.493 122.322 152.805L81.8778 135.328L41.4336 152.805C39.8413 153.493 38.0926 153.76 36.3622 153.579C34.6317 153.398 32.9801 152.774 31.5722 151.772C30.1643 150.769 29.0493 149.421 28.3387 147.864C27.6281 146.306 27.3466 144.593 27.5224 142.896L31.9791 99.7884L2.53326 67.4869C1.37315 66.2154 0.573562 64.6677 0.21431 62.9984C-0.144943 61.3292 -0.0512872 59.5967 0.485926 57.974C1.02314 56.3514 1.98512 54.8952 3.27582 53.751C4.56652 52.6068 6.14079 51.8145 7.84147 51.4532L51.0393 42.2778L73.2828 4.84237Z" fill="#282D26"/>
</svg>
