<svg width="161" height="130" viewBox="0 0 161 130" fill="none" xmlns="http://www.w3.org/2000/svg">
<path d="M65.7148 83.0459H97.4423" stroke="#282D26" stroke-width="8.17015"/>
<path d="M68.8438 47.3696H93.4904" stroke="#282D26" stroke-width="8.17015"/>
<path d="M91.4494 20.9526H71.7048L62.4453 125.122H101.662L91.4494 20.9526Z" stroke="#675B2F" stroke-width="8.17015"/>
<path d="M58.7692 34.1623C58.7692 24.6295 53.0503 4.88495 24.3184 4.88525C26.225 12.7828 30.7728 34.1623 58.7692 34.1623Z" stroke="#2F4822" stroke-width="8.17015"/>
<path d="M112.827 88.0876C115.842 97.131 127.513 114.053 154.77 104.965C150.463 98.0763 139.386 79.2327 112.827 88.0876Z" stroke="#2F4822" stroke-width="8.17015"/>
<path d="M108.471 73.1766C117.684 75.6227 138.235 75.1617 145.607 47.3916C137.485 47.2079 115.654 46.1176 108.471 73.1766Z" stroke="#2F4822" stroke-width="8.17015"/>
<path d="M51.5402 50.3632C44.3045 44.1569 25.5944 35.643 6.88867 57.4517C14.1245 61.1462 33.3131 71.6134 51.5402 50.3632Z" stroke="#2F4822" stroke-width="8.17015"/>
</svg>
