<svg width="164" height="139" viewBox="0 0 164 139" fill="none" xmlns="http://www.w3.org/2000/svg">
<path d="M118.592 84.5933C120.203 81.9083 125.654 78.1491 134.568 84.5933C143.483 91.0376 147.322 87.905 148.128 85.5332" stroke="#EBAE99" stroke-width="8.05529"/>
<path d="M142.357 98.1543C144.64 101.376 148.667 110.076 146.519 119.098" stroke="#F27F42" stroke-width="8.05529"/>
<path d="M93.6211 116.949C96.4852 116.054 103.18 114.398 107.047 114.935" stroke="#F25430" stroke-width="8.05529"/>
<path d="M103.824 87.8169C104.451 93.1871 107.798 104.357 116.176 106.076C118.01 106.523 121.438 109.271 120.472 116.682" stroke="#F27F42" stroke-width="8.05529"/>
<path d="M88.1152 90.3672C89.592 92.1125 92.5993 96.2475 92.8142 98.8252" stroke="#EBAE99" stroke-width="8.05529"/>
<path d="M73.6152 75.0618C76.0766 71.8397 82.6909 67.3287 89.4573 75.0618C91.1579 77.7469 95.9284 81.506 101.406 75.0618C103.769 73.236 109.103 72.6901 111.475 72.6453" stroke="#EBAE99" stroke-width="8.05529"/>
<path d="M74.5566 62.308C76.7047 59.3542 86.7738 54.6566 110.134 68.2154" stroke="#F25430" stroke-width="8.05529"/>
<path d="M55.625 73.0483C58.3548 76.9417 63.3849 86.3127 61.6665 92.6495C61.4875 93.7236 61.935 96.3818 65.1571 98.4225C68.3792 100.463 68.2897 113.414 67.8422 119.635" stroke="#F27F42" stroke-width="8.05529"/>
<path d="M5.81836 115.473C15.9322 112.028 40.4561 106.962 57.6407 114.265" stroke="#F25430" stroke-width="8.05529"/>
<path d="M6.625 65.9326C8.37031 69.0205 12.2369 75.5184 13.7405 76.8073" stroke="#EBAE99" stroke-width="8.05529"/>
<path d="M28.2385 74.9432C30.3738 73.9799 35.9776 72.0622 41.31 72.0969" stroke="#EBAE99" stroke-width="8.05529"/>
<path d="M8.10156 47.8081C12.3082 51.5225 17.4994 60.0253 22.7353 64.7242C27.3 59.891 34.3887 52.3728 45.5587 64.7242C46.9012 65.843 51.627 65.4492 59.7897 54.9236" stroke="#EBAE99" stroke-width="8.05529"/>
<path d="M12.9355 36.396C15.7101 40.8712 21.7964 46.8679 31.4627 42.169C36.4301 39.7542 42.0688 48.0762 44.6197 48.0762C47.1705 48.0762 50.0346 45.7938 52.675 44.0485" stroke="#F25430" stroke-width="8.05529"/>
<path d="M4.3418 55.4611L17.7673 25.9253C21.5264 18.4067 33.2603 11.211 44.2155 25.9253C52.6735 44.3182 57.7752 51.7022 61.1316 54.253C64.488 56.8039 75.7654 71.9747 72.5432 84.7289C71.574 88.5655 76.1681 92.1129 79.1217 95.7378C82.0753 99.3627 83.5521 111.177 83.5521 115.205C83.5521 118.427 87.0428 124.871 88.7881 127.69" stroke="#282D26" stroke-width="8.05529"/>
<path d="M71.2012 67.6794L78.8537 54.5224C79.9277 52.4191 83.4184 47.944 89.5941 51.1661C93.6217 52.9108 93.3532 38.9482 100.737 49.4201C108.121 59.8921 110.866 69.4776 111.88 71.3037C112.552 72.512 119.667 80.433 118.325 89.563C117.851 92.7845 122.71 94.7535 124.098 95.201C127.051 97.4834 127.857 99.4441 128.931 105.137C130.005 110.829 131.795 121.739 132.556 126.483" stroke="#282D26" stroke-width="8.05529"/>
<path d="M117.385 78.2842C123.068 69.7814 136.18 57.8775 143.162 78.2842C144.236 82.9832 146.384 86.7424 148.263 87.4136C150.143 88.0849 159.944 90.9043 159.004 129.972" stroke="#282D26" stroke-width="8.05529"/>
<path d="M3 131.583C8.90721 131.587 30.9234 125.358 40.4571 125.676C52.54 126.079 64.3545 131.581 71.8727 131.581C79.391 131.581 96.334 125.538 113.626 125.538C130.918 125.538 152.963 134 163.032 134" stroke="#2F4822" stroke-width="8.05529"/>
<path d="M5.28125 17.1984C14.3211 7.17407 38.7107 -5.1149 58.5804 18.9436C64.568 26.1934 68.6495 34.1144 71.3346 40.5586C73.8855 36.2625 78.8529 32.3691 85.6999 36.3968C88.922 31.0266 97.6486 24.9046 110 38.5449C112.282 42.483 115.639 50.762 117.116 53.9842C118.816 49.4643 126.997 43.1364 146.115 53.9842C150.008 56.5798 157.983 64.2682 158.735 74.2567" stroke="#94120D" stroke-width="8.05529"/>
</svg>
