<svg width="132" height="141" viewBox="0 0 132 141" fill="none" xmlns="http://www.w3.org/2000/svg">
<path d="M3.32812 94.4653L5.78837 97.2701L8.24862 100.075" stroke="#F25430" stroke-width="8.31644"/>
<path d="M11.3672 84.4868L13.8274 87.2916L16.2877 90.0964" stroke="#F25430" stroke-width="8.31644"/>
<path d="M120.242 84.4868L117.782 87.2916L115.322 90.0964" stroke="#F25430" stroke-width="8.31644"/>
<path d="M128.283 94.1885L125.823 96.9933L123.363 99.798" stroke="#F25430" stroke-width="8.31644"/>
<path d="M114.701 94.1885L112.241 96.9933L109.781 99.798" stroke="#F25430" stroke-width="8.31644"/>
<path d="M16.9102 94.1885L19.3704 96.9933L21.8307 99.798" stroke="#F25430" stroke-width="8.31644"/>
<path d="M52.2521 69.9321C55.0704 79.6808 58.2127 100.287 52.3907 106.109C45.241 113.258 18.3171 117.575 25.7815 130.088C30.4945 137.988 48.3715 120.005 63.4793 118.722C73.7784 117.847 84.5476 121.078 88.7058 123.296L91.6166 125.098" stroke="#EBAE99" stroke-width="8.31644"/>
<path d="M80.6685 70.2085C78.0349 79.4952 72.7678 100.148 81.223 105.831C90.856 112.305 97.44 112.345 104.37 122.186C109.914 130.058 104.648 134.522 100.351 135.077C96.9133 135.52 85.6123 134.153 80.3914 133.413C73.0451 132.373 58.8517 129.477 52.5312 138.126" stroke="#EBAE99" stroke-width="8.31644"/>
<path d="M66.2539 0.76709V24.4689" stroke="#F27F42" stroke-width="8.31644"/>
<path d="M101.74 53.9917L77.3452 47.0612" stroke="#F27F42" stroke-width="8.31644"/>
<path d="M104.514 39.0229L79.5643 39.5284" stroke="#F27F42" stroke-width="8.31644"/>
<path d="M100.205 22.1128L78.456 31.5337" stroke="#F27F42" stroke-width="8.31644"/>
<path d="M87.4632 7.83585L72.6333 26.7077" stroke="#F27F42" stroke-width="8.31644"/>
<path d="M30.7734 54.5459L54.1503 47.0612" stroke="#F27F42" stroke-width="8.31644"/>
<path d="M27.7227 38.7451L51.4239 38.9164" stroke="#F27F42" stroke-width="8.31644"/>
<path d="M32.7109 21.0039L53.9967 31.4296" stroke="#F27F42" stroke-width="8.31644"/>
<path d="M45.7422 7.14307L59.8193 26.2117" stroke="#F27F42" stroke-width="8.31644"/>
<path d="M16.9096 112.897C24.6254 108.277 40.5006 98.6208 42.2748 96.9575C44.4925 94.8784 42.4134 89.1955 40.057 76.998C37.7007 64.8006 45.0469 61.3354 45.4627 60.781C45.7954 60.3374 52.9937 56.5304 57.2444 54.6823C60.2937 53.3565 54.888 50.9403 53.3634 41.0995C51.8772 31.5074 55.1652 28.9466 58.6304 26.4064C60.5205 25.0205 64.8678 24.469 66.1152 24.4688" stroke="#EBAE99" stroke-width="8.31644"/>
<path d="M115.321 112.759C107.605 108.139 91.7299 98.4824 89.9557 96.8192C87.738 94.7401 89.8171 89.0571 92.1734 76.8597C94.5297 64.6623 87.1836 61.1971 86.7677 60.6426C86.4351 60.1991 79.2367 56.3921 74.9861 54.544C71.9367 53.2182 77.3424 50.802 78.8671 40.9611C80.3532 31.3691 77.0652 28.8083 73.6 26.2681C71.71 24.8822 67.2241 24.4687 66.1152 24.4688" stroke="#EBAE99" stroke-width="8.31644"/>
</svg>
