<svg width="144" height="113" viewBox="0 0 144 113" fill="none" xmlns="http://www.w3.org/2000/svg">
<path d="M49.7812 28.9061C62.5726 25.6723 74.5205 23.5637 93.9184 29.0466" stroke="#EBAE99" stroke-width="8.43384"/>
<path d="M50.764 28.7655C45.9848 29.0466 33.6995 20.8095 33.4746 0.230957" stroke="#EBAE99" stroke-width="8.43384"/>
<path d="M92.7926 28.7655C97.5718 29.0466 109.857 20.8095 110.082 0.230957" stroke="#EBAE99" stroke-width="8.43384"/>
<path d="M10.2832 40.0107H40.645" stroke="#F25430" stroke-width="8.43384"/>
<path d="M104.037 40.9946H134.399" stroke="#F25430" stroke-width="8.43384"/>
<path d="M58.4968 84.5695C52.0308 61.1422 42.5006 33.4604 32.4924 33.123H5.92578C9.48674 43.4311 22.4561 61.9106 39.0989 55.051" stroke="#94120D" stroke-width="8.43384"/>
<path d="M86.1884 84.2884C92.6544 60.861 101.341 33.4604 111.349 33.123H137.916C134.355 43.4311 121.386 61.9106 104.743 55.051" stroke="#94120D" stroke-width="8.43384"/>
<path d="M72.5537 107.903C69.0396 107.903 74.9994 108.1 57.2321 107.763C39.4648 107.425 49.8291 92.4411 57.2321 84.9912H89.1403" stroke="#F27F42" stroke-width="8.43384"/>
<path d="M86.1853 83.7266C93.5884 91.1765 104.177 107.201 86.1847 107.622C68.1923 108.044 74.096 107.904 70.5819 107.904" stroke="#F27F42" stroke-width="8.43384"/>
<path d="M71.709 36.9185V44.9306" stroke="#F25430" stroke-width="8.43384"/>
<path d="M50.7656 100.313C60.8862 104.952 83.6014 105.711 93.4971 100.313" stroke="#F27F42" stroke-width="8.43384"/>
</svg>
