<svg width="957" height="946" viewBox="0 0 957 946" fill="none" xmlns="http://www.w3.org/2000/svg">
<path d="M382.297 901.977C445.218 939.027 512.864 940.863 582.256 906.031" stroke="#F27F42" stroke-width="30"/>
<path d="M128.406 187.105C135.918 201.42 171.071 256.902 172.548 271.226C174.205 287.297 105.027 317.951 79.0939 329.865" stroke="#EBAE99" stroke-width="30"/>
<path d="M5.00195 574L141.411 616.913" stroke="#EBAE99" stroke-width="30"/>
<path d="M226.029 68L218.129 81.8047L185.701 124.042" stroke="#94120D" stroke-width="30"/>
<path d="M237.2 177.726L229.002 167L258.455 205.533" stroke="#F25430" stroke-width="30"/>
<path d="M154.85 145.891L225.598 238.448" stroke="#675B2F" stroke-width="30"/>
<path d="M122.322 490.785L124.857 418.329" stroke="#2F4822" stroke-width="30"/>
<path d="M73.002 272.934L109.548 244.999" stroke="#F25430" stroke-width="30"/>
<path d="M141.429 359.373C88.9612 357.538 43.9975 397.689 42.929 443.479C41.5029 504.597 94.2098 550.337 125.039 551.416" stroke="#F27F42" stroke-width="30"/>
<path d="M854.156 389.037C880.114 375.671 941.259 342.718 941.747 338.748C942.235 334.778 888.839 244.59 868.055 210.398" stroke="#282D26" stroke-width="30"/>
<path d="M921.297 473.676L856.917 464.718" stroke="#F27F42" stroke-width="30"/>
<path d="M903.381 602.434L839.001 593.476" stroke="#F27F42" stroke-width="30"/>
<path d="M911.926 541.027L847.546 532.069" stroke="#F27F42" stroke-width="30"/>
<path d="M186.981 690.647C263.445 764.069 283.162 783.714 281.886 785.965L242.002 849.5" stroke="#282D26" stroke-width="30"/>
<path d="M173.187 638.137C117.166 684.631 95.5333 700.359 96.9079 702.034L174.306 796.34" stroke="#F27F42" stroke-width="30"/>
<path d="M857.021 648.457L781.136 726.703" stroke="#94120D" stroke-width="30"/>
<path d="M591.496 104.77L737.726 186.458" stroke="#F25430" stroke-width="30"/>
<path d="M567.547 17.4375L735.855 75.3716" stroke="#F27F42" stroke-width="30"/>
<path d="M783.285 109.773L860.358 160.011" stroke="#675B2F" stroke-width="30"/>
<path d="M820.295 267.799L857.887 333.275" stroke="#94120D" stroke-width="30"/>
<path d="M771.002 181.943L798.636 230.075" stroke="#2F4822" stroke-width="30"/>
<path d="M893.664 709.067C851.823 755.322 763.889 853.955 741.883 864.853C727.144 872.151 688.739 834.905 672.587 819.24" stroke="#F25430" stroke-width="30"/>
<path d="M785.994 812.906L728.925 757.559" stroke="#F25430" stroke-width="30"/>
<path d="M939.875 449L913.621 637.682" stroke="#EBAE99" stroke-width="30"/>
<path d="M328.335 819.159C389.795 860.838 505.167 925.289 637.791 827.908" stroke="#675B2F" stroke-width="30"/>
<path d="M515.572 88.6184C507.797 56.5472 496.5 10.3158 463.947 15.7288C423.394 22.472 439.032 57.2673 433.141 83.9048C427.569 109.103 386.222 133.611 358.588 96.8332C335.043 65.4987 328.446 55.262 319.14 50.8298C309.747 46.356 290.043 49.6501 280.001 63.4042C269.959 77.1585 281.812 132.422 284.757 144.569" stroke="#2F4822" stroke-width="30"/>
</svg>
