<svg width="1048" height="938" viewBox="0 0 1048 938" fill="none" xmlns="http://www.w3.org/2000/svg">
<rect x="0.824219" width="1046.95" height="937.888" fill="#F25430" fill-opacity="0.3"/>
<circle cx="524.702" cy="254.881" r="81.167" stroke="black" stroke-width="25.3647"/>
<circle cx="524.273" cy="460.772" r="78.2078" fill="#F25430"/>
<path d="M167.035 377.915C197.05 393.98 260.039 433.295 358.961 409.199C429.751 391.955 457.461 348.746 524.255 348.746" stroke="black" stroke-width="25.3647"/>
<path d="M881.062 377.915C851.047 393.98 788.058 433.295 689.135 409.199C618.345 391.955 590.636 348.746 523.842 348.746" stroke="black" stroke-width="25.3647"/>
<path d="M470.566 628.603C364.034 617.471 155.362 577.394 189.864 509.389C226.375 450.933 337.824 486.279 383.481 509.389L524.677 592.247L673.906 509.389C721.395 485.434 824.15 451.896 855.264 509.389C886.378 566.882 680.811 613.243 577.521 629.026" stroke="black" stroke-width="25.3647"/>
<path d="M219.792 703.283H233.665L204.203 746.76V778.367H192.047V746.76L162.728 703.283H177.459L198.626 735.319L219.792 703.283ZM236.306 740.897C236.306 729.837 240.168 720.683 247.891 713.437C255.614 706 265.482 702.282 277.495 702.282C289.318 702.282 299.091 705.857 306.814 713.008C314.632 720.159 318.541 729.455 318.541 740.897C318.541 752.243 314.632 761.539 306.814 768.785C299.186 776.031 289.413 779.654 277.495 779.654C265.673 779.654 255.804 776.079 247.891 768.928C240.168 761.777 236.306 752.433 236.306 740.897ZM249.178 740.897C249.178 748.524 251.895 755.008 257.33 760.347C262.669 765.591 269.391 768.213 277.495 768.213C286.076 768.213 292.894 765.639 297.947 760.49C303.095 755.341 305.67 748.81 305.67 740.897C305.67 732.888 302.952 726.404 297.518 721.446C292.178 716.298 285.504 713.723 277.495 713.723C269.391 713.723 262.621 716.298 257.187 721.446C251.847 726.5 249.178 732.983 249.178 740.897ZM391.948 749.335H370.782V738.608H403.39V769.214C399.767 772.456 395.047 774.982 389.231 776.794C383.224 778.701 377.647 779.654 372.498 779.654C359.34 779.654 348.995 776.174 341.463 769.214C333.836 762.159 330.022 752.719 330.022 740.897C330.022 729.837 333.788 720.683 341.32 713.437C348.852 706 358.721 702.282 370.925 702.282C381.222 702.282 389.994 704.761 397.24 709.719L391.948 719.301C386.609 715.583 380.078 713.723 372.355 713.723C363.583 713.723 356.48 716.155 351.045 721.017C345.611 725.88 342.893 732.506 342.893 740.897C342.893 749.096 345.611 755.723 351.045 760.776C356.575 765.734 363.822 768.213 372.784 768.213C380.984 768.213 387.372 766.354 391.948 762.635V749.335ZM493.09 757.916C493.09 755.055 491.612 752.672 488.656 750.765C485.7 748.858 482.077 747.285 477.787 746.045C473.592 744.71 469.349 743.28 465.058 741.755C460.863 740.134 457.288 737.75 454.332 734.604C451.376 731.362 449.898 727.405 449.898 722.733C449.898 716.536 452.33 711.578 457.192 707.86C462.055 704.141 469.11 702.282 478.359 702.282C482.84 702.282 487.703 703.235 492.947 705.142C498.381 707.049 502.243 709.29 504.531 711.864L498.953 720.874C496.379 718.872 493.042 717.203 488.942 715.869C484.938 714.438 481.219 713.723 477.787 713.723C473.115 713.723 469.444 714.581 466.775 716.298C464.105 718.014 462.77 720.35 462.77 723.305C462.77 727.882 467.823 731.648 477.93 734.604C481.648 735.557 484.89 736.558 487.655 737.607C490.42 738.656 493.328 740.086 496.379 741.898C499.526 743.709 501.909 746.045 503.53 748.906C505.151 751.766 505.961 755.008 505.961 758.631C505.961 764.924 503.292 770.024 497.952 773.934C492.708 777.747 485.987 779.654 477.787 779.654C471.399 779.654 465.392 778.606 459.767 776.508C454.141 774.315 449.946 771.407 447.181 767.784L454.189 759.489C456.763 762.063 460.291 764.161 464.772 765.782C469.349 767.403 473.925 768.213 478.502 768.213C482.697 768.213 486.177 767.307 488.942 765.496C491.707 763.589 493.09 761.062 493.09 757.916ZM540.765 714.724H512.876V703.283H580.953V714.724H552.921V778.367H540.765V714.724ZM647.769 703.283H659.925V747.189C659.925 757.963 656.827 766.068 650.629 771.502C644.432 776.842 636.709 779.511 627.46 779.511C616.877 779.511 608.439 776.603 602.146 770.787C595.949 764.971 592.85 756.867 592.85 746.474V703.283H605.006V744.043C605.006 751.48 606.961 757.344 610.87 761.634C614.779 765.925 620.309 768.07 627.46 768.07C634.039 768.07 639.045 766.068 642.477 762.063C646.005 758.059 647.769 752.29 647.769 744.758V703.283ZM684.255 778.367H682.825V703.283H684.255C687.783 703.283 691.31 703.235 694.838 703.14C698.366 703.045 702.132 702.997 706.137 702.997C721.869 702.997 733.501 706.429 741.033 713.294C748.661 720.064 752.474 728.978 752.474 740.038C752.474 751.48 748.374 760.776 740.175 767.927C732.07 775.078 720.438 778.653 705.279 778.653C702.037 778.653 698.747 778.606 695.41 778.51C692.169 778.415 688.45 778.367 684.255 778.367ZM705.994 714.438C705.326 714.438 701.655 714.534 694.981 714.724V766.926C696.793 766.926 698.557 766.973 700.273 767.069C701.989 767.069 703.276 767.116 704.134 767.212C704.992 767.212 705.517 767.212 705.708 767.212C716.386 767.212 724.681 764.781 730.593 759.918C736.599 755.055 739.603 748.429 739.603 740.038C739.603 731.934 736.742 725.641 731.022 721.16C725.301 716.679 716.958 714.438 705.994 714.438ZM784.414 778.367H772.258V703.283H784.414V778.367ZM804.186 740.897C804.186 729.837 808.048 720.683 815.771 713.437C823.494 706 833.362 702.282 845.375 702.282C857.198 702.282 866.971 705.857 874.694 713.008C882.512 720.159 886.421 729.455 886.421 740.897C886.421 752.243 882.512 761.539 874.694 768.785C867.066 776.031 857.293 779.654 845.375 779.654C833.553 779.654 823.684 776.079 815.771 768.928C808.048 761.777 804.186 752.433 804.186 740.897ZM817.058 740.897C817.058 748.524 819.775 755.008 825.21 760.347C830.549 765.591 837.271 768.213 845.375 768.213C853.956 768.213 860.774 765.639 865.827 760.49C870.975 755.341 873.55 748.81 873.55 740.897C873.55 732.888 870.832 726.404 865.398 721.446C860.058 716.298 853.384 713.723 845.375 713.723C837.271 713.723 830.501 716.298 825.067 721.446C819.728 726.5 817.058 732.983 817.058 740.897Z" fill="black"/>
</svg>
