<svg width="197" height="123" viewBox="0 0 197 123" fill="none" xmlns="http://www.w3.org/2000/svg">
<path d="M25.209 49.3281L28.0345 46.9679L30.86 44.6077" stroke="#94120D" stroke-width="8.20654"/>
<path d="M167.307 44.2002L169.734 46.9679L172.162 49.7356" stroke="#94120D" stroke-width="8.20654"/>
<path d="M67.6094 22.0312L71.2563 21.5269L74.9032 21.0226" stroke="#94120D" stroke-width="8.20654"/>
<path d="M58.293 43.3813L57.0279 47.2847L55.7627 51.1881" stroke="#2F4822" stroke-width="8.20654"/>
<path d="M25.6055 69.3667L25.9027 73.5493L26.1999 77.732" stroke="#675B2F" stroke-width="8.20654"/>
<path d="M170.725 71.0078L169.7 74.981L168.675 78.9542" stroke="#675B2F" stroke-width="8.20654"/>
<path d="M146.588 44.2002L142.587 45.1123L138.587 46.0244" stroke="#2F4822" stroke-width="8.20654"/>
<path d="M98.3145 31.6167L95.6087 34.7014L92.9029 37.7861" stroke="#675B2F" stroke-width="8.20654"/>
<path d="M120.848 20.3203L124.326 21.5272L127.804 22.7341" stroke="#94120D" stroke-width="8.20654"/>
<path d="M94.9255 115.879C75.136 113.892 34.2947 88.3683 43.7148 20.7173C73.6369 38.3697 126.468 82.6545 94.9255 115.879Z" stroke="#F27F42" stroke-width="8.20654"/>
<path d="M44.9389 63.7594C42.1423 51.8399 41.3656 37.5886 43.7148 20.7173C53.7322 26.627 66.3173 35.5217 77.4445 45.987" stroke="#EBAE99" stroke-width="8.20654"/>
<path d="M44.9389 63.7594C42.1423 51.8399 41.3656 37.5886 43.7148 20.7173C53.7322 26.627 66.3173 35.5217 77.4445 45.987" stroke="#F25430" stroke-width="8.20654"/>
<path d="M97.2768 115.323C79.2224 123.666 7.82547 115.323 4.81641 59.3818C39.5574 59.3818 107.562 70.6795 97.2768 115.323Z" stroke="#F27F42" stroke-width="8.20654"/>
<path d="M94.034 112.523C87.4174 93.7673 93.1498 45.9488 158.385 25.7056C155.133 60.2941 137.519 126.943 94.034 112.523Z" stroke="#F27F42" stroke-width="8.20654"/>
<path d="M115.333 49.0384C125.405 39.8527 139.366 31.6073 158.385 25.7056C157.352 36.6849 154.873 50.8945 150.579 64.7163" stroke="#F25430" stroke-width="8.20654"/>
<path d="M96.5261 115.61C80.0272 104.504 52.421 64.7162 96.5264 7.40711C118.621 35.5829 140.028 101.244 96.5261 115.61Z" stroke="#F27F42" stroke-width="8.20654"/>
<path d="M99.2837 116.008C117.338 124.351 184.678 116.008 191.744 60.0664C157.003 60.0664 88.9982 71.3641 99.2837 116.008Z" stroke="#F27F42" stroke-width="8.20654"/>
</svg>
