<svg width="294" height="248" viewBox="0 0 294 248" fill="none" xmlns="http://www.w3.org/2000/svg">
<circle cx="146.113" cy="37.5348" r="32.4626" stroke="#D5C9C9" stroke-width="10.1445"/>
<circle cx="145.944" cy="119.875" r="31.279" fill="#F25430"/>
<path d="M3.07584 86.7365C15.0802 93.1614 40.2725 108.885 79.8363 99.2482C108.149 92.3516 119.231 75.0703 145.945 75.0703" stroke="#D5C9C9" stroke-width="10.1445"/>
<path d="M288.644 86.7365C276.64 93.1614 251.448 108.885 211.884 99.2482C183.572 92.3516 172.489 75.0703 145.775 75.0703" stroke="#D5C9C9" stroke-width="10.1445"/>
<path d="M124.472 186.998C81.8645 182.546 -1.59355 166.517 12.2052 139.319C26.8077 115.939 71.3818 130.076 89.642 139.319L146.113 172.458L205.797 139.319C224.79 129.738 265.887 116.324 278.331 139.319C290.775 162.313 208.559 180.855 167.248 187.167" stroke="#D5C9C9" stroke-width="10.1445"/>
<path d="M24.1658 216.875H29.7142L17.9311 234.263V246.904H13.0691V234.263L1.3432 216.875H7.23475L15.7003 229.687L24.1658 216.875ZM30.7706 231.918C30.7706 227.495 32.3149 223.834 35.4037 220.936C38.4925 217.961 42.4393 216.474 47.244 216.474C51.9725 216.474 55.8811 217.904 58.9699 220.764C62.0968 223.624 63.6603 227.342 63.6603 231.918C63.6603 236.456 62.0968 240.174 58.9699 243.072C55.9193 245.97 52.0106 247.419 47.244 247.419C42.5155 247.419 38.5688 245.989 35.4037 243.129C32.3149 240.269 30.7706 236.532 30.7706 231.918ZM35.9185 231.918C35.9185 234.969 37.0053 237.562 39.1789 239.697C41.3143 241.794 44.0027 242.843 47.244 242.843C50.676 242.843 53.4025 241.814 55.4235 239.754C57.4827 237.695 58.5123 235.083 58.5123 231.918C58.5123 228.715 57.4255 226.122 55.252 224.139C53.1165 222.08 50.4472 221.05 47.244 221.05C44.0027 221.05 41.2953 222.08 39.1217 224.139C36.9862 226.16 35.9185 228.753 35.9185 231.918ZM93.0193 235.293H84.5537V231.003H97.5952V243.244C96.1462 244.54 94.2586 245.551 91.9325 246.275C89.5301 247.038 87.2993 247.419 85.2401 247.419C79.9778 247.419 75.8403 246.027 72.8278 243.244C69.7772 240.422 68.2519 236.647 68.2519 231.918C68.2519 227.495 69.7581 223.834 72.7706 220.936C75.7831 217.961 79.7299 216.474 84.6109 216.474C88.7293 216.474 92.2375 217.466 95.1357 219.449L93.0193 223.281C90.8838 221.794 88.2717 221.05 85.1829 221.05C81.6747 221.05 78.8338 222.023 76.6602 223.967C74.4866 225.912 73.3998 228.562 73.3998 231.918C73.3998 235.197 74.4866 237.848 76.6602 239.869C78.8719 241.852 81.77 242.843 85.3545 242.843C88.634 242.843 91.1889 242.1 93.0193 240.612V235.293ZM133.47 238.725C133.47 237.581 132.879 236.627 131.697 235.865C130.515 235.102 129.066 234.473 127.35 233.977C125.672 233.443 123.975 232.871 122.259 232.261C120.582 231.613 119.152 230.66 117.969 229.401C116.787 228.105 116.196 226.522 116.196 224.654C116.196 222.175 117.169 220.192 119.113 218.705C121.058 217.218 123.88 216.474 127.579 216.474C129.371 216.474 131.316 216.855 133.413 217.618C135.587 218.381 137.131 219.277 138.046 220.307L135.816 223.91C134.786 223.109 133.451 222.442 131.812 221.908C130.21 221.336 128.723 221.05 127.35 221.05C125.482 221.05 124.014 221.393 122.946 222.08C121.878 222.766 121.344 223.7 121.344 224.882C121.344 226.713 123.365 228.219 127.407 229.401C128.895 229.783 130.191 230.183 131.297 230.602C132.403 231.022 133.566 231.594 134.786 232.318C136.044 233.043 136.998 233.977 137.646 235.121C138.294 236.265 138.618 237.562 138.618 239.011C138.618 241.528 137.551 243.568 135.415 245.131C133.318 246.656 130.63 247.419 127.35 247.419C124.795 247.419 122.393 247 120.143 246.161C117.893 245.284 116.215 244.121 115.109 242.672L117.912 239.354C118.942 240.384 120.353 241.222 122.145 241.871C123.975 242.519 125.806 242.843 127.636 242.843C129.314 242.843 130.706 242.481 131.812 241.756C132.918 240.994 133.47 239.983 133.47 238.725ZM152.538 221.451H141.384V216.875H168.611V221.451H157.4V246.904H152.538V221.451ZM195.334 216.875H200.196V234.435C200.196 238.744 198.957 241.985 196.478 244.159C193.999 246.294 190.911 247.362 187.212 247.362C182.979 247.362 179.604 246.199 177.087 243.873C174.609 241.547 173.369 238.305 173.369 234.149V216.875H178.231V233.176C178.231 236.151 179.013 238.496 180.577 240.212C182.14 241.928 184.352 242.786 187.212 242.786C189.843 242.786 191.845 241.985 193.218 240.384C194.629 238.782 195.334 236.475 195.334 233.462V216.875ZM209.927 246.904H209.355V216.875H209.927C211.337 216.875 212.748 216.855 214.159 216.817C215.57 216.779 217.077 216.76 218.678 216.76C224.97 216.76 229.622 218.133 232.635 220.879C235.685 223.586 237.211 227.151 237.211 231.575C237.211 236.151 235.571 239.869 232.292 242.729C229.05 245.589 224.398 247.019 218.335 247.019C217.038 247.019 215.723 247 214.388 246.961C213.092 246.923 211.604 246.904 209.927 246.904ZM218.621 221.336C218.354 221.336 216.886 221.374 214.217 221.451V242.328C214.941 242.328 215.647 242.347 216.333 242.386C217.019 242.386 217.534 242.405 217.877 242.443C218.221 242.443 218.43 242.443 218.507 242.443C222.777 242.443 226.095 241.47 228.459 239.526C230.862 237.581 232.063 234.931 232.063 231.575C232.063 228.334 230.919 225.817 228.631 224.024C226.343 222.232 223.006 221.336 218.621 221.336ZM249.985 246.904H245.123V216.875H249.985V246.904ZM257.893 231.918C257.893 227.495 259.437 223.834 262.526 220.936C265.615 217.961 269.562 216.474 274.366 216.474C279.095 216.474 283.003 217.904 286.092 220.764C289.219 223.624 290.783 227.342 290.783 231.918C290.783 236.456 289.219 240.174 286.092 243.072C283.042 245.97 279.133 247.419 274.366 247.419C269.638 247.419 265.691 245.989 262.526 243.129C259.437 240.269 257.893 236.532 257.893 231.918ZM263.041 231.918C263.041 234.969 264.128 237.562 266.301 239.697C268.437 241.794 271.125 242.843 274.366 242.843C277.798 242.843 280.525 241.814 282.546 239.754C284.605 237.695 285.635 235.083 285.635 231.918C285.635 228.715 284.548 226.122 282.374 224.139C280.239 222.08 277.569 221.05 274.366 221.05C271.125 221.05 268.418 222.08 266.244 224.139C264.109 226.16 263.041 228.753 263.041 231.918Z" fill="#D5C9C9"/>
</svg>
