<svg width="1078" height="780" viewBox="0 0 1078 780" fill="none" xmlns="http://www.w3.org/2000/svg">
<path d="M829 117.326C827.667 88.159 825.8 18.7249 829 16.3249C832.2 13.9249 937 15.3257 977 16.3257" stroke="#282D26" stroke-width="30"/>
<path d="M933 360.5C933 376.667 927.652 442.13 933 455.5C939 470.5 1014.5 465.5 1043 464" stroke="#F27F42" stroke-width="30"/>
<path d="M15 249V348.5" stroke="#EBAE99" stroke-width="30"/>
<path d="M672 704V772" stroke="#EBAE99" stroke-width="30"/>
<path d="M1013 270.5V413.5" stroke="#94120D" stroke-width="30"/>
<path d="M717 229V389" stroke="#675B2F" stroke-width="30"/>
<path d="M796 281.5V334.75V388" stroke="#94120D" stroke-width="30"/>
<path d="M869 299.5V286V334.5" stroke="#F25430" stroke-width="30"/>
<path d="M869 361.5V478" stroke="#675B2F" stroke-width="30"/>
<path d="M839.5 522L836 646" stroke="#EBAE99" stroke-width="30"/>
<path d="M918.5 525V624.5" stroke="#282D26" stroke-width="30"/>
<path d="M711 432.5V522.5" stroke="#94120D" stroke-width="30"/>
<path d="M796 704V772" stroke="#F27F42" stroke-width="30"/>
<path d="M736 704V772" stroke="#675B2F" stroke-width="30"/>
<path d="M325 194V273.5" stroke="#675B2F" stroke-width="30"/>
<path d="M255 194V270.5" stroke="#F25430" stroke-width="30"/>
<path d="M758.5 34.3262V99.3262" stroke="#F27F42" stroke-width="30"/>
<path d="M628.5 34.3262V99.3262" stroke="#F27F42" stroke-width="30"/>
<path d="M690.5 34.3262V99.3262" stroke="#F27F42" stroke-width="30"/>
<path d="M15 541V608" stroke="#F25430" stroke-width="30"/>
<path d="M15 659V699" stroke="#EBAE99" stroke-width="30"/>
<path d="M15 392V491.5" stroke="#675B2F" stroke-width="30"/>
<path d="M15 11V185.501" stroke="#282D26" stroke-width="30"/>
<path d="M198.498 11C198.098 83.8 199.665 110.5 197.499 110.5H75.4984" stroke="#F27F42" stroke-width="30"/>
<path d="M196.5 180H70" stroke="#EBAE99" stroke-width="30"/>
<path d="M434 310H370" stroke="#2F4822" stroke-width="30"/>
<path d="M134 31H70" stroke="#F25430" stroke-width="30"/>
<path d="M961.5 760H918" stroke="#94120D" stroke-width="30"/>
<path d="M148 760H0" stroke="#F27F42" stroke-width="30"/>
<path d="M787 640H582" stroke="#94120D" stroke-width="30"/>
<path d="M634.5 576H587" stroke="#675B2F" stroke-width="30"/>
<path d="M627 420H563" stroke="#F25430" stroke-width="30"/>
<path d="M654 499H567" stroke="#EBAE99" stroke-width="30"/>
<path d="M512.5 166H464.5" stroke="#675B2F" stroke-width="30"/>
<path d="M517 241H458.5" stroke="#F27F42" stroke-width="30"/>
<path d="M581.5 90.5H472.5" stroke="#94120D" stroke-width="30"/>
<path d="M761 166H585.5" stroke="#F25430" stroke-width="30"/>
<path d="M668 246H605H579.5H556.5" stroke="#282D26" stroke-width="30"/>
<path d="M659 315H530" stroke="#94120D" stroke-width="30"/>
<path d="M659 374H595" stroke="#F27F42" stroke-width="30"/>
<path d="M955 320H909" stroke="#F25430" stroke-width="30"/>
<path d="M1073 18.8262H1019.5" stroke="#675B2F" stroke-width="30"/>
<path d="M951 86.3262H875.5" stroke="#94120D" stroke-width="30"/>
<path d="M1050 86.3262H994.5" stroke="#2F4822" stroke-width="30"/>
<path d="M331 349H267" stroke="#94120D" stroke-width="30"/>
<path d="M140 310H70" stroke="#675B2F" stroke-width="30"/>
<path d="M185 250H68" stroke="#94120D" stroke-width="30"/>
<path d="M267 22C266.2 77.6 268.167 115.333 268.5 128C268.671 134.5 269.5 147 272 147C275.688 147 347 147 383 147H399.5C403 147 405.5 155.5 405.5 182C405.5 208.803 405.667 246.833 405.5 262.5" stroke="#EBAE99" stroke-width="30"/>
<path d="M563.5 22.0019C501.167 19.8352 369.144 14.2907 346 22.5016C330.5 28.0007 330.5 81.5008 330.5 104.002" stroke="#F25430" stroke-width="30"/>
<path d="M414 27V106.5" stroke="#F25430" stroke-width="30"/>
<path d="M790.151 420C790.151 429 793.58 548.912 786.653 566C779.152 584.5 706.653 579 668.153 575" stroke="#2F4822" stroke-width="30"/>
<path d="M866 779.5C866 727 866 689 880.5 689H1077.5" stroke="#F25430" stroke-width="30"/>
<path d="M1074 623C1054 623 1002.5 625 990.5 623C980.076 621.263 983.5 550 987.5 521" stroke="#EBAE99" stroke-width="30"/>
<path d="M796 251.399C796 218.399 801.588 160.808 834.5 158.4C875.5 155.4 868.5 197.899 880.5 222.399C892.5 246.899 934.824 260.788 953.5 222.399C971.5 185.399 974.687 168.321 979.5 162.398C986 154.399 1009.5 148.398 1022.5 162.398C1034.09 174.878 1051 238.9 1051 251.399" stroke="#675B2F" stroke-width="30"/>
<path d="M785.5 19.3262H595" stroke="#EBAE99" stroke-width="30"/>
</svg>
