<svg width="1364" height="786" viewBox="0 0 1364 786" fill="none" xmlns="http://www.w3.org/2000/svg">
<path d="M790 21H599.5" stroke="#EBAE99" stroke-width="30"/>
<path d="M1059 413.499C1059 361 1100.7 317.467 1146.5 318C1207.63 318.712 1251.5 372.985 1251.5 403.834" stroke="#2F4822" stroke-width="30"/>
<path d="M1183.5 257C1165 257 1114.5 241.831 1114.5 201C1114.5 146.5 1179 146.5 1183.5 146.5" stroke="#EBAE99" stroke-width="30"/>
<path d="M1139.5 567.5C1139.5 553.167 1139.5 479.1 1139.5 475.5C1139.5 469.499 1318.5 467 1326.5 467" stroke="#94120D" stroke-width="30"/>
<path d="M1221 596.501C1221 582.167 1221 542.101 1221 538.501C1221 532.5 1325 535.5 1337.5 535.5" stroke="#675B2F" stroke-width="30"/>
<path d="M802.5 255.5C802.5 222.5 808.088 164.91 841 162.501C882 159.501 875 202 887 226.5C899 251 941.324 264.89 960 226.5C978 189.501 981.187 172.422 986 166.5C992.5 158.5 1016 152.499 1029 166.5C1040.59 178.979 1057.5 243.001 1057.5 255.5" stroke="#F27F42" stroke-width="30"/>
<path d="M1111.5 705C1111.5 672 1111.59 624.408 1144.5 622C1185.5 619 1178.5 656.5 1190.5 681C1201.85 704.176 1247.81 718.253 1266 676.001C1281.5 640.002 1285.5 628.499 1293.5 621.999C1301.58 615.438 1321.5 613.998 1334.5 624.999C1347.5 636 1349 692.501 1349 705" stroke="#2F4822" stroke-width="30"/>
<path d="M1073.5 452.5V571" stroke="#F25430" stroke-width="30"/>
<path d="M250.004 24C249.204 79.6 251.171 117.333 251.504 130C251.675 136.5 252.504 149 255.004 149C258.692 149 330.004 149 366.004 149H382.504C386.004 149 388.504 157.5 388.504 184C388.504 210.803 388.671 248.833 388.504 264.5" stroke="#EBAE99" stroke-width="30"/>
<path d="M651 248H588H562.5H539.5" stroke="#282D26" stroke-width="30"/>
<path d="M564.5 92.5H455.5" stroke="#94120D" stroke-width="30"/>
<path d="M500 243H441.5" stroke="#F27F42" stroke-width="30"/>
<path d="M495.5 168H447.5" stroke="#675B2F" stroke-width="30"/>
<path d="M471 317H384" stroke="#EBAE99" stroke-width="30"/>
<path d="M1077.5 626C1057.5 626 1006 628 994 626C983.576 624.263 987 553 991 524" stroke="#EBAE99" stroke-width="30"/>
<path d="M1191 399H1118.5" stroke="#2F4822" stroke-width="30"/>
<path d="M849 781.5C849 729 849 691 863.5 691H1060.5" stroke="#F25430" stroke-width="30"/>
<path d="M1208 771H1107.5" stroke="#EBAE99" stroke-width="30"/>
<path d="M773.151 422C773.151 431 776.58 550.912 769.653 568C762.152 586.5 689.653 581 651.153 577" stroke="#2F4822" stroke-width="30"/>
<path d="M1060 762H912" stroke="#94120D" stroke-width="30"/>
<path d="M546.5 24.0019C484.167 21.8352 352.144 16.2907 329 24.5016C313.5 30.0007 313.5 83.5008 313.5 106.002" stroke="#F25430" stroke-width="30"/>
<path d="M179.5 182H53" stroke="#EBAE99" stroke-width="30"/>
<path d="M744 168H568.5" stroke="#F25430" stroke-width="30"/>
<path d="M695 36V101" stroke="#F27F42" stroke-width="30"/>
<path d="M633 36V101" stroke="#F27F42" stroke-width="30"/>
<path d="M719 706V774" stroke="#675B2F" stroke-width="30"/>
<path d="M779 706V774" stroke="#F27F42" stroke-width="30"/>
<path d="M168 252H51" stroke="#94120D" stroke-width="30"/>
<path d="M181.495 13C181.095 85.8 182.661 112.5 180.495 112.5H58.4945" stroke="#F27F42" stroke-width="30"/>
<path d="M686 435V525" stroke="#94120D" stroke-width="30"/>
<path d="M763 36V101" stroke="#F27F42" stroke-width="30"/>
<path d="M1116 20.5H1024" stroke="#675B2F" stroke-width="30"/>
<path d="M852 301.5V288V336.5" stroke="#F25430" stroke-width="30"/>
<path d="M238 196V272.5" stroke="#F25430" stroke-width="30"/>
<path d="M1341.5 15H1163.5" stroke="#F27F42" stroke-width="30"/>
<path d="M779 283.5V336.75V390" stroke="#94120D" stroke-width="30"/>
<path d="M308 196V275.5" stroke="#675B2F" stroke-width="30"/>
<path d="M1263.5 88H1096" stroke="#F25430" stroke-width="30"/>
<path d="M700 231V391" stroke="#675B2F" stroke-width="30"/>
<path d="M922 528V627.5" stroke="#282D26" stroke-width="30"/>
<path d="M938 322H892" stroke="#F25430" stroke-width="30"/>
<path d="M678 706V774" stroke="#F27F42" stroke-width="30"/>
<path d="M1054.5 88H999" stroke="#2F4822" stroke-width="30"/>
<path d="M843 525L839.5 649" stroke="#EBAE99" stroke-width="30"/>
<path d="M833.5 119C832.167 89.8328 830.3 20.3987 833.5 17.9987C836.7 15.5987 941.5 16.9995 981.5 17.9995" stroke="#282D26" stroke-width="30"/>
<path d="M955.5 88H880" stroke="#94120D" stroke-width="30"/>
<path d="M852 363.5V480" stroke="#675B2F" stroke-width="30"/>
<path d="M642 317H513" stroke="#94120D" stroke-width="30"/>
<path d="M916 362.5C916 378.667 910.652 444.13 916 457.5C922 472.5 997.5 467.5 1026 466" stroke="#F27F42" stroke-width="30"/>
<path d="M996 272.5V415.5" stroke="#94120D" stroke-width="30"/>
<path d="M397 29V108.5" stroke="#F25430" stroke-width="30"/>
<path d="M150.5 49H101" stroke="#675B2F" stroke-width="30"/>
<path d="M15 96V240" stroke="#F25430" stroke-width="30"/>
</svg>
