<svg width="1118" height="788" viewBox="0 0 1118 788" fill="none" xmlns="http://www.w3.org/2000/svg">
<path d="M78.9074 771.519L1.00258 770.999" stroke="#F27F42" stroke-width="30"/>
<path d="M582.502 120.291C583.835 91.1239 585.702 21.6897 582.502 19.2897C579.302 16.8897 474.502 18.2905 434.502 19.2905" stroke="#282D26" stroke-width="30"/>
<path d="M17.002 109.289C17.002 80.2891 17.002 24.6142 17.002 20.6142C17.002 16.7895 68.002 18.2901 107.502 18.2902" stroke="#EBAE99" stroke-width="30"/>
<path d="M500.002 363.789C500.002 379.956 505.35 445.419 500.002 458.789C494.002 473.789 418.502 468.789 390.002 467.289" stroke="#F27F42" stroke-width="30"/>
<path d="M761.002 707.289V775.289" stroke="#EBAE99" stroke-width="30"/>
<path d="M420.002 273.789V416.789" stroke="#94120D" stroke-width="30"/>
<path d="M17.002 351V566.5" stroke="#F25430" stroke-width="30"/>
<path d="M99.002 262.289V405.289" stroke="#EBAE99" stroke-width="30"/>
<path d="M174.002 151.289V286.789" stroke="#2F4822" stroke-width="30"/>
<path d="M91.002 72.2891V215.289" stroke="#94120D" stroke-width="30"/>
<path d="M716.002 232.289V392.289" stroke="#675B2F" stroke-width="30"/>
<path d="M637.002 284.789V338.039V391.289" stroke="#94120D" stroke-width="30"/>
<path d="M961.002 298V351.25V404.5" stroke="#EBAE99" stroke-width="30"/>
<path d="M564.002 302.789V289.289V337.789" stroke="#F25430" stroke-width="30"/>
<path d="M564.002 364.789V481.289" stroke="#675B2F" stroke-width="30"/>
<path d="M573.002 526.289L576.502 650.289" stroke="#EBAE99" stroke-width="30"/>
<path d="M494.002 529.289V628.789" stroke="#282D26" stroke-width="30"/>
<path d="M722.002 435.789V525.789" stroke="#94120D" stroke-width="30"/>
<path d="M637.002 707.289V775.289" stroke="#F27F42" stroke-width="30"/>
<path d="M697.002 707.289V775.289" stroke="#675B2F" stroke-width="30"/>
<path d="M653.002 37.2891V102.289" stroke="#F27F42" stroke-width="30"/>
<path d="M783.002 37.2891V102.289" stroke="#F27F42" stroke-width="30"/>
<path d="M721.002 37.2891V102.289" stroke="#F27F42" stroke-width="30"/>
<path d="M356.002 763.289H504.002" stroke="#94120D" stroke-width="30"/>
<path d="M208.002 772.289H308.502" stroke="#EBAE99" stroke-width="30"/>
<path d="M225.002 400.289H297.502" stroke="#2F4822" stroke-width="30"/>
<path d="M126.002 772.289H175.002" stroke="#282D26" stroke-width="30"/>
<path d="M646.002 643.289H851.002" stroke="#94120D" stroke-width="30"/>
<path d="M798.502 579.289H846.002" stroke="#675B2F" stroke-width="30"/>
<path d="M992.002 72H1056" stroke="#2F4822" stroke-width="30"/>
<path d="M789.002 505.289H876.002" stroke="#F27F42" stroke-width="30"/>
<path d="M920.502 169.289H968.502" stroke="#675B2F" stroke-width="30"/>
<path d="M916.002 244.289H974.502" stroke="#F27F42" stroke-width="30"/>
<path d="M851.502 93.7891H960.502" stroke="#94120D" stroke-width="30"/>
<path d="M672.002 169.289H847.502" stroke="#F25430" stroke-width="30"/>
<path d="M765.002 249.289H828.002H853.502H876.502" stroke="#282D26" stroke-width="30"/>
<path d="M774.002 318.289H903.002" stroke="#94120D" stroke-width="30"/>
<path d="M774.002 377.289H838.002" stroke="#F27F42" stroke-width="30"/>
<path d="M478.002 323.289H524.002" stroke="#F25430" stroke-width="30"/>
<path d="M900.002 618H946.002" stroke="#F25430" stroke-width="30"/>
<path d="M152.502 89.2891H320.002" stroke="#F25430" stroke-width="30"/>
<path d="M137.002 22H269.002" stroke="#F27F42" stroke-width="30"/>
<path d="M300.002 21.7891H392.002" stroke="#675B2F" stroke-width="30"/>
<path d="M460.502 89.2891H536.002" stroke="#94120D" stroke-width="30"/>
<path d="M361.502 89.2891H417.002" stroke="#2F4822" stroke-width="30"/>
<path d="M870.002 18.8476C932.335 16.6809 1064.36 11.1364 1087.5 19.3473C1103 24.8464 1103 78.3465 1103 100.847" stroke="#F25430" stroke-width="30"/>
<path d="M642.851 423.289C642.85 432.289 639.422 552.201 646.349 569.289C653.85 587.789 726.349 582.289 764.849 578.289" stroke="#2F4822" stroke-width="30"/>
<path d="M567.002 782.789C567.002 730.289 567.002 692.289 552.502 692.289H355.502" stroke="#F25430" stroke-width="30"/>
<path d="M338.502 627.289C358.502 627.289 410.002 629.289 422.002 627.289C432.426 625.552 429.002 554.289 425.002 525.289" stroke="#EBAE99" stroke-width="30"/>
<path d="M342.502 453.789V572.289" stroke="#F25430" stroke-width="30"/>
<path d="M17.002 605V723.5" stroke="#EBAE99" stroke-width="30"/>
<path d="M17.002 258.289V319.789" stroke="#282D26" stroke-width="30"/>
<path d="M17.002 140.789V228.289" stroke="#675B2F" stroke-width="30"/>
<path d="M304.502 706.291C304.502 673.291 304.414 625.699 271.501 623.291C230.502 620.291 237.502 657.791 225.502 682.291C214.15 705.467 168.193 719.544 150.001 677.292C134.501 641.293 130.501 629.79 122.501 623.29C114.426 616.729 94.5005 615.289 81.501 626.29C68.5013 637.291 67.0022 693.792 67.002 706.291" stroke="#2F4822" stroke-width="30"/>
<path d="M613.502 256.789C613.502 223.789 607.914 166.199 575.002 163.79C534.002 160.79 541.002 203.289 529.002 227.789C517.002 252.289 474.678 266.179 456.002 227.789C438.002 190.79 434.815 173.711 430.002 167.789C423.502 159.789 400.002 153.788 387.002 167.789C375.414 180.268 358.502 244.29 358.502 256.789" stroke="#675B2F" stroke-width="30"/>
<path d="M195.002 597.79C195.002 583.456 195.002 543.39 195.002 539.79C195.002 533.789 91.002 536.789 78.502 536.789" stroke="#675B2F" stroke-width="30"/>
<path d="M276.502 568.789C276.502 554.456 276.502 480.389 276.502 476.789C276.502 470.789 97.502 468.289 89.502 468.289" stroke="#94120D" stroke-width="30"/>
<path d="M980.502 650.289C980.502 621.289 980.502 565.614 980.502 561.614C980.502 557.789 929.502 559.29 890.002 559.29" stroke="#EBAE99" stroke-width="30"/>
<path d="M1033.5 362.289V577.789" stroke="#F25430" stroke-width="30"/>
<path d="M1103 393V536" stroke="#EBAE99" stroke-width="30"/>
<path d="M1103 202V345" stroke="#94120D" stroke-width="30"/>
<path d="M846.002 707H1024" stroke="#F27F42" stroke-width="30"/>
<path d="M1019.5 268.289V329.789" stroke="#282D26" stroke-width="30"/>
<path d="M1019.5 150.789V238.289" stroke="#675B2F" stroke-width="30"/>
<path d="M922.502 498.751C922.502 484.417 922.502 444.351 922.502 440.751C922.502 434.75 818.502 437.75 806.002 437.75" stroke="#675B2F" stroke-width="30"/>
<path d="M1002 759C1016.34 759 1090.4 759 1094 759C1100 759 1102.5 580 1102.5 572" stroke="#94120D" stroke-width="30"/>
<path d="M232.502 258.289C251.002 258.289 301.502 243.12 301.502 202.289C301.502 147.789 237.002 147.789 232.502 147.789" stroke="#EBAE99" stroke-width="30"/>
<path d="M357.002 414.788C357.002 362.289 315.304 318.756 269.504 319.289C208.373 320.001 164.504 374.274 164.504 405.123" stroke="#F27F42" stroke-width="30"/>
<path d="M626.002 22.2891H816.502" stroke="#EBAE99" stroke-width="30"/>
</svg>
