<svg width="2239" height="796" viewBox="0 0 2239 796" fill="none" xmlns="http://www.w3.org/2000/svg">
<path d="M825.905 777.52L748.001 777" stroke="#F27F42" stroke-width="30"/>
<path d="M1377.5 121C1378.83 91.8328 1380.7 22.3987 1377.5 19.9987C1374.3 17.5987 1269.5 18.9995 1229.5 19.9995" stroke="#282D26" stroke-width="30"/>
<path d="M810 106.999C810 77.9991 810 22.3242 810 18.3242C810 14.4994 759 16 719.5 16.0001" stroke="#EBAE99" stroke-width="30"/>
<path d="M1295 364.5C1295 380.667 1300.35 446.13 1295 459.5C1289 474.5 1213.5 469.5 1185 468" stroke="#F27F42" stroke-width="30"/>
<path d="M2219.5 253V352.5" stroke="#EBAE99" stroke-width="30"/>
<path d="M1556 708V776" stroke="#EBAE99" stroke-width="30"/>
<path d="M1215 274.5V417.5" stroke="#94120D" stroke-width="30"/>
<path d="M822 366V581.5" stroke="#EBAE99" stroke-width="30"/>
<path d="M894 263V406" stroke="#F25430" stroke-width="30"/>
<path d="M969 152V287.5" stroke="#2F4822" stroke-width="30"/>
<path d="M886 73V216" stroke="#94120D" stroke-width="30"/>
<path d="M1511 233V393" stroke="#675B2F" stroke-width="30"/>
<path d="M1432 285.5V338.75V392" stroke="#94120D" stroke-width="30"/>
<path d="M1359 303.5V290V338.5" stroke="#F25430" stroke-width="30"/>
<path d="M1359 365.5V482" stroke="#675B2F" stroke-width="30"/>
<path d="M1368 527L1371.5 651" stroke="#EBAE99" stroke-width="30"/>
<path d="M1289 530V629.5" stroke="#282D26" stroke-width="30"/>
<path d="M1517 436.5V526.5" stroke="#94120D" stroke-width="30"/>
<path d="M1432 708V776" stroke="#F27F42" stroke-width="30"/>
<path d="M1492 708V776" stroke="#675B2F" stroke-width="30"/>
<path d="M1903 198V277.5" stroke="#675B2F" stroke-width="30"/>
<path d="M1973 198V274.5" stroke="#F25430" stroke-width="30"/>
<path d="M1448 38V103" stroke="#F27F42" stroke-width="30"/>
<path d="M641 34V96" stroke="#F27F42" stroke-width="30"/>
<path d="M187 34V96" stroke="#F27F42" stroke-width="30"/>
<path d="M250 34V96" stroke="#F27F42" stroke-width="30"/>
<path d="M316 34V96" stroke="#F27F42" stroke-width="30"/>
<path d="M511 34V96" stroke="#F27F42" stroke-width="30"/>
<path d="M578 34V96" stroke="#F27F42" stroke-width="30"/>
<path d="M1578 38V103" stroke="#F27F42" stroke-width="30"/>
<path d="M1516 38V103" stroke="#F27F42" stroke-width="30"/>
<path d="M2224 545V612" stroke="#F25430" stroke-width="30"/>
<path d="M2224 396V495.5" stroke="#675B2F" stroke-width="30"/>
<path d="M2087 30.0016C2193 28.8016 2220.83 29.0005 2221.5 31.5005V190.501" stroke="#282D26" stroke-width="30"/>
<path d="M2029.5 15C2029.9 87.8 2028.33 114.5 2030.5 114.5H2152.5" stroke="#F27F42" stroke-width="30"/>
<path d="M107 19.5C34.1989 19.5103 15.5507 20.0099 15.5391 22.1766L15.5391 122.999" stroke="#EBAE99" stroke-width="30"/>
<path d="M2031.5 184H2158" stroke="#EBAE99" stroke-width="30"/>
<path d="M1895 422H1959" stroke="#2F4822" stroke-width="30"/>
<path d="M1151 764H1299" stroke="#94120D" stroke-width="30"/>
<path d="M1003 773H1103.5" stroke="#EBAE99" stroke-width="30"/>
<path d="M1020 401H1092.5" stroke="#2F4822" stroke-width="30"/>
<path d="M866 773H970" stroke="#282D26" stroke-width="30"/>
<path d="M1441 644H1646" stroke="#94120D" stroke-width="30"/>
<path d="M156 19H351" stroke="#2F4822" stroke-width="30"/>
<path d="M1593.5 580H1641" stroke="#675B2F" stroke-width="30"/>
<path d="M1695 644H1759" stroke="#F25430" stroke-width="30"/>
<path d="M1584 506H1671" stroke="#EBAE99" stroke-width="30"/>
<path d="M1715.5 170H1763.5" stroke="#675B2F" stroke-width="30"/>
<path d="M1711 245H1769.5" stroke="#F27F42" stroke-width="30"/>
<path d="M1646.5 94.5H1755.5" stroke="#94120D" stroke-width="30"/>
<path d="M1467 170H1642.5" stroke="#F25430" stroke-width="30"/>
<path d="M1560 250H1623H1648.5H1671.5" stroke="#282D26" stroke-width="30"/>
<path d="M1569 319H1698" stroke="#94120D" stroke-width="30"/>
<path d="M1569 378H1633" stroke="#F27F42" stroke-width="30"/>
<path d="M1273 324H1319" stroke="#F25430" stroke-width="30"/>
<path d="M66 90H116.5" stroke="#282D26" stroke-width="30"/>
<path d="M379 77H450" stroke="#FD5D31" stroke-width="30"/>
<path d="M396 17H438.5" stroke="#675B2F" stroke-width="30"/>
<path d="M368 270H466.5" stroke="#F27F42" stroke-width="30"/>
<path d="M704 82H750" stroke="#282D26" stroke-width="30"/>
<path d="M947.5 90H1115" stroke="#F25430" stroke-width="30"/>
<path d="M869.5 17H1047.5" stroke="#F27F42" stroke-width="30"/>
<path d="M1095 22.5H1187" stroke="#675B2F" stroke-width="30"/>
<path d="M1255.5 90H1331" stroke="#94120D" stroke-width="30"/>
<path d="M1156.5 90H1212" stroke="#2F4822" stroke-width="30"/>
<path d="M2070 517H2134" stroke="#94120D" stroke-width="30"/>
<path d="M2088.5 330H2158.5" stroke="#675B2F" stroke-width="30"/>
<path d="M2043 254H2160" stroke="#94120D" stroke-width="30"/>
<path d="M1961 26C1961.8 81.6 1959.83 119.333 1959.5 132C1959.33 138.5 1958.5 151 1956 151C1952.31 151 1881 151 1845 151H1828.5C1825 151 1822.5 159.5 1822.5 186C1822.5 212.803 1822.33 250.833 1822.5 266.5" stroke="#EBAE99" stroke-width="30"/>
<path d="M1664.5 26.0019C1726.83 23.8352 1858.86 18.2907 1882 26.5016C1897.5 32.0007 1897.5 85.5008 1897.5 108.002" stroke="#F25430" stroke-width="30"/>
<path d="M1814 31V110.5" stroke="#F25430" stroke-width="30"/>
<path d="M1437.85 424C1437.85 433 1434.42 552.912 1441.35 570C1448.85 588.5 1521.35 583 1559.85 579" stroke="#2F4822" stroke-width="30"/>
<path d="M1362 783.5C1362 731 1362 693 1347.5 693H1150.5" stroke="#F25430" stroke-width="30"/>
<path d="M1133.5 628C1153.5 628 1205 630 1217 628C1227.42 626.263 1224 555 1220 526" stroke="#EBAE99" stroke-width="30"/>
<path d="M1137.5 454.5V573" stroke="#F25430" stroke-width="30"/>
<path d="M812 259V320.5" stroke="#282D26" stroke-width="30"/>
<path d="M777 483V544.5" stroke="#675B2F" stroke-width="30"/>
<path d="M782.445 633L758.329 649.256" stroke="#F25430" stroke-width="30"/>
<path d="M689 531.476L712.228 548.977" stroke="#F25430" stroke-width="30"/>
<path d="M813.736 691.188L739.999 716.333" stroke="#F27F42" stroke-width="30"/>
<path d="M744.865 582.15L686.001 633.184" stroke="#F27F42" stroke-width="30"/>
<path d="M812 141.5V229" stroke="#675B2F" stroke-width="30"/>
<path d="M81 140V227.5" stroke="#F27F42" stroke-width="30"/>
<path d="M420 130V217.5" stroke="#282D26" stroke-width="30"/>
<path d="M15 142V196" stroke="#282D26" stroke-width="30"/>
<path d="M22 365L20.0099 567" stroke="#F27F42" stroke-width="30"/>
<path d="M20.9883 591L18.9981 793" stroke="#94120D" stroke-width="30"/>
<path d="M18 233V316.5" stroke="#675B2F" stroke-width="30"/>
<path d="M727 265.5V363.5" stroke="#F25430" stroke-width="30"/>
<path d="M741 125V229" stroke="#F27F42" stroke-width="30"/>
<path d="M1099.5 707C1099.5 674 1099.41 626.408 1066.5 624C1025.5 621 1032.5 658.5 1020.5 683C1009.15 706.176 963.192 720.253 944.999 678.001C929.499 642.002 925.499 630.499 917.499 623.999C909.424 617.438 889.499 615.998 876.499 626.999C863.499 638 862 694.501 862 707" stroke="#2F4822" stroke-width="30"/>
<path d="M1408.5 257.5C1408.5 224.5 1402.91 166.91 1370 164.501C1329 161.501 1336 204 1324 228.5C1312 253 1269.68 266.89 1251 228.5C1233 191.501 1229.81 174.422 1225 168.5C1218.5 160.5 1195 154.499 1182 168.5C1170.41 180.979 1153.5 245.001 1153.5 257.5" stroke="#675B2F" stroke-width="30"/>
<path d="M352 216C352 187.532 351.924 146.477 323.516 144.399C288.126 141.811 294.168 174.161 283.81 195.296C274.012 215.289 234.344 227.433 218.641 190.984C205.262 159.929 201.81 150.006 194.904 144.399C187.934 138.739 170.736 137.496 159.515 146.987C148.294 156.477 147 205.218 147 216" stroke="#675B2F" stroke-width="30"/>
<path d="M688 216C688 187.532 687.924 146.477 659.516 144.399C624.126 141.811 630.168 174.161 619.81 195.296C610.012 215.289 570.344 227.433 554.641 190.984C541.262 159.929 537.81 150.006 530.904 144.398C523.934 138.739 506.736 137.496 495.515 146.986C484.294 156.477 483 205.218 483 216" stroke="#675B2F" stroke-width="30"/>
<path d="M990 598.501C990 584.167 990 544.101 990 540.501C990 534.5 886 537.5 873.5 537.5" stroke="#675B2F" stroke-width="30"/>
<path d="M1071.5 569.5C1071.5 555.167 1071.5 481.1 1071.5 477.5C1071.5 471.499 892.5 469 884.5 469" stroke="#94120D" stroke-width="30"/>
<path d="M1027.5 259C1046 259 1096.5 243.831 1096.5 203C1096.5 148.5 1032 148.5 1027.5 148.5" stroke="#EBAE99" stroke-width="30"/>
<path d="M1152 415.499C1152 363 1110.3 319.467 1064.5 320C1003.37 320.712 959.502 374.985 959.502 405.834" stroke="#F27F42" stroke-width="30"/>
<path d="M285.062 303.889C272.11 278.227 220.865 231.33 163.998 262.233" stroke="#EBAE99" stroke-width="30"/>
<path d="M483 19H673.5" stroke="#2F4822" stroke-width="30"/>
<path d="M1421 23H1611.5" stroke="#EBAE99" stroke-width="30"/>
<path d="M491.5 596.5C497.5 586.5 517.8 572.5 551 596.5C584.2 620.5 598.5 608.833 601.5 600" stroke="#EBAE99" stroke-width="30"/>
<path d="M580 647C588.5 659 603.5 691.4 595.5 725" stroke="#F27F42" stroke-width="30"/>
<path d="M338 356.5V383" stroke="#F25430" stroke-width="30"/>
<path d="M510 402.5V433.5" stroke="#F25430" stroke-width="30"/>
<path d="M513 268V335" stroke="#94120D" stroke-width="30"/>
<path d="M563 268V335" stroke="#F27F42" stroke-width="30"/>
<path d="M611.5 282V318.5" stroke="#282D26" stroke-width="30"/>
<path d="M612.5 371.5H654" stroke="#F27F42" stroke-width="30"/>
<path d="M304 320.5H443C455.5 320.5 471 332.5 471 363C471 379.5 521.167 374.833 546.5 374.5C556.333 374.167 575.8 380.6 575 409C574.2 437.4 634 427 660 427" stroke="#F25430" stroke-width="30"/>
<path d="M398.5 717C409.167 713.667 434.1 707.5 448.5 709.5" stroke="#F25430" stroke-width="30"/>
<path d="M436.5 608.5C438.833 628.5 451.3 670.1 482.5 676.5C489.333 678.167 502.1 688.4 498.5 716" stroke="#F27F42" stroke-width="30"/>
<path d="M378 618C383.5 624.5 394.7 639.9 395.5 649.5" stroke="#EBAE99" stroke-width="30"/>
<path d="M324 561C333.167 549 357.8 532.2 383 561C389.333 571 407.1 584.999 427.5 561C436.3 554.2 456.167 552.167 465 552" stroke="#EBAE99" stroke-width="30"/>
<path d="M327.5 513.5C335.5 502.499 373 485.004 460 535.5" stroke="#F25430" stroke-width="30"/>
<path d="M257 553.5C267.167 568 285.9 602.9 279.5 626.5C278.833 630.5 280.5 640.4 292.5 648C304.5 655.6 304.167 703.833 302.5 727" stroke="#F27F42" stroke-width="30"/>
<path d="M71.5 711.5C109.167 698.667 200.5 679.8 264.5 707" stroke="#F25430" stroke-width="30"/>
<path d="M74.5 527C81 538.5 95.4 562.7 101 567.5" stroke="#EBAE99" stroke-width="30"/>
<path d="M155 560.558C162.953 556.971 183.823 549.828 203.682 549.958" stroke="#EBAE99" stroke-width="30"/>
<path d="M80 459.5C95.6667 473.333 115 505 134.5 522.5C151.5 504.5 177.9 476.5 219.5 522.5C224.5 526.667 242.1 525.2 272.5 486" stroke="#EBAE99" stroke-width="30"/>
<path d="M98 417C108.333 433.667 131 456 167 438.5C185.5 429.507 206.5 460.5 216 460.5C225.5 460.5 236.167 452 246 445.5" stroke="#F25430" stroke-width="30"/>
<path d="M66 488L116 378.001C130 350 173.7 323.201 214.5 378.001C246 446.501 265 474.001 277.5 483.501C290 493.001 332 549.501 320 597.001C316.39 611.29 333.5 624.501 344.5 638.001C355.5 651.501 361 695.501 361 710.501C361 722.501 374 746.501 380.5 757.001" stroke="#282D26" stroke-width="30"/>
<path d="M315 533.502L343.5 484.502C347.5 476.669 360.5 460.002 383.5 472.002C398.5 478.5 397.5 426.5 425 465.5C452.5 504.5 462.722 540.199 466.5 547C469 551.5 495.5 581 490.5 615.002C488.736 627 506.833 634.333 512 636C523 644.5 526 651.802 530 673.002C534 694.202 540.667 734.836 543.5 752.502" stroke="#282D26" stroke-width="30"/>
<path d="M487 573C508.167 541.333 557 497 583 573C587 590.5 595 604.5 602 607C609 609.5 645.5 620 642 765.5" stroke="#282D26" stroke-width="30"/>
<path d="M61 771.5C83 771.514 164.994 748.317 200.5 749.5C245.5 750.999 289.5 771.49 317.5 771.49C345.5 771.49 408.6 748.986 473 748.986C537.4 748.986 619.5 780.5 657 780.5" stroke="#2F4822" stroke-width="30"/>
<path d="M69.5 345.5C103.167 308.167 194 262.4 268 352C290.299 379 305.5 408.5 315.5 432.5C325 416.5 343.5 402 369 417C381 397 413.5 374.2 459.5 425C468 439.667 480.5 470.5 486 482.5C492.333 465.667 522.8 442.1 594 482.5C608.5 492.167 638.2 520.8 641 558" stroke="#94120D" stroke-width="30"/>
<path d="M690.5 670.5C712.5 704 707 728.5 707 792" stroke="#675B2F" stroke-width="30"/>
<path d="M671.847 482.015C704.012 484.955 772.199 462.823 758.181 387" stroke="#2F4822" stroke-width="30"/>
</svg>
