<svg width="137" height="153" viewBox="0 0 137 153" fill="none" xmlns="http://www.w3.org/2000/svg">
<path d="M15.2363 127.446L17.9385 130.527L20.6406 133.607" stroke="#EBAE99" stroke-width="8.19544"/>
<path d="M14.6914 112.421L17.3935 115.501L20.0957 118.582" stroke="#EBAE99" stroke-width="8.19544"/>
<path d="M133.465 118.432L130.763 121.512L128.061 124.593" stroke="#EBAE99" stroke-width="8.19544"/>
<path d="M122.266 112.148L119.563 115.228L116.861 118.309" stroke="#EBAE99" stroke-width="8.19544"/>
<path d="M121.982 125.534L119.28 128.614L116.578 131.695" stroke="#EBAE99" stroke-width="8.19544"/>
<path d="M3.2168 119.524L5.91893 122.604L8.62107 125.685" stroke="#EBAE99" stroke-width="8.19544"/>
<path d="M69.3281 121.71C69.3281 127.086 69.3281 129.414 69.3281 129.905" stroke="#282D26" stroke-width="8.19544"/>
<path d="M55.783 148.071C48.316 149.482 33.0543 145.995 31.743 120.753C30.1039 89.2003 22.4548 78.956 11.391 71.9899C0.327139 65.0238 20.5439 65.161 26.0062 67.3458C28.8988 68.5028 46.4946 74.1754 55.783 107.913" stroke="#94120D" stroke-width="8.19544"/>
<path d="M81.3284 148.17C88.7953 149.581 104.057 146.094 105.368 120.852C107.007 89.2995 114.656 79.0551 125.72 72.089C136.784 65.1229 116.567 65.2601 111.105 67.4449C108.213 68.602 90.6167 74.2745 81.3284 108.012" stroke="#94120D" stroke-width="8.19544"/>
<path d="M37.0723 74.7224V24.0486C37.0723 15.3063 50.185 9.56836 57.1511 18.7203" stroke="#94120D" stroke-width="8.19544"/>
<path d="M98.127 74.9616V24.2878C98.127 15.5455 84.8777 9.97834 77.9115 19.1303" stroke="#94120D" stroke-width="8.19544"/>
<path d="M57.8359 76.0881V13.1199C57.8365 9.70509 59.8848 4.51472 67.9437 4.51465" stroke="#94120D" stroke-width="8.19544"/>
<path d="M77.5039 76.0881V12.7897C77.5034 9.34233 75.3185 4.51465 67.3962 4.51465" stroke="#94120D" stroke-width="8.19544"/>
<path d="M47.1816 126.035C54.1478 116.883 73.9908 105.182 90.6362 126.035C83.2603 134.686 67.8255 146.432 47.1816 126.035Z" stroke="#F27F42" stroke-width="8.19544"/>
</svg>
