<svg width="134" height="141" viewBox="0 0 134 141" fill="none" xmlns="http://www.w3.org/2000/svg">
<path d="M29.9844 34.6509L34.0639 34.0867L38.1435 33.5226" stroke="#94120D" stroke-width="8.23676"/>
<path d="M24.5605 65.0962L23.2908 69.0139L22.021 72.9317" stroke="#2F4822" stroke-width="8.23676"/>
<path d="M115.99 68.667L111.975 69.5824L107.96 70.4979" stroke="#2F4822" stroke-width="8.23676"/>
<path d="M70.0117 28.3066L67.296 31.4027L64.5802 34.4988" stroke="#675B2F" stroke-width="8.23676"/>
<path d="M96.1504 34.6211L100.269 34.6277L104.387 34.6343" stroke="#94120D" stroke-width="8.23676"/>
<path d="M104.937 86.5123C113.814 83.6752 131.212 76.134 129.784 68.666C128.357 61.198 112.625 53.8398 104.937 51.0942" stroke="#F27F42" stroke-width="8.23676"/>
<path d="M29.9831 86.3751C21.1057 83.538 3.70779 75.9968 5.1355 68.5288C6.5632 61.0608 22.2954 53.7026 29.9831 50.957" stroke="#F27F42" stroke-width="8.23676"/>
<path d="M32.3163 50.82C28.747 49.9962 19.7414 44.972 22.7066 23.2269C28.7469 21.7168 42.5845 20.3166 49.6132 26.7962" stroke="#F27F42" stroke-width="8.23676"/>
<path d="M29.7099 87.0612C25.1796 85.6887 16.8506 86.4714 19.3256 108.278" stroke="#F27F42" stroke-width="8.23676"/>
<path d="M105.213 86.7877C108.507 85.9639 117.024 86.2713 114.549 108.077" stroke="#F27F42" stroke-width="8.23676"/>
<path d="M102.467 50.9571C106.036 49.9962 114.493 45.0057 111.527 23.2606C105.487 21.7505 91.6494 20.3503 84.6207 26.8299" stroke="#F27F42" stroke-width="8.23676"/>
<path d="M18.7266 136.354H53.0464C58.4003 136.583 67.0489 132.098 67.0489 116.86C67.0489 102.364 67.0489 93.9258 67.0489 91.3263C67.0489 86.891 62.9305 85.4151 61.2832 85.69C56.2038 86.5376 56.2038 89.5329 56.2038 96.8174C56.2038 101.339 56.2038 106.427 56.2038 108.349C56.0665 109.173 56.6157 111.232 54.2819 113.84" stroke="#EBAE99" stroke-width="8.23676"/>
<path d="M118.666 136.385H84.3462C78.9923 136.614 70.3437 132.129 70.3437 116.891C70.3437 102.395 70.3437 93.957 70.3437 91.3575C70.3437 86.9222 74.4621 85.4464 76.1094 85.7213C81.1888 86.5689 81.1888 89.5641 81.1888 96.8487C81.1888 101.37 81.1888 106.458 81.1888 108.38C81.326 109.204 80.7769 111.263 83.1107 113.871" stroke="#EBAE99" stroke-width="8.23676"/>
<path d="M131.98 114.546H94.7778C95.5557 100.451 92.91 72.922 89.6984 67.9799C84.9703 60.7041 82.9717 50.82 81.3914 51.1224C79.8813 50.8479 74.0486 51.6448 77.8222 69.7924V78.0024V86.2388" stroke="#EBAE99" stroke-width="8.23676"/>
<path d="M2.80273 114.554H42.4765C41.6985 100.46 44.4113 72.9308 47.6228 67.9887C52.351 60.7129 54.3495 50.8288 55.9298 51.1312C57.4399 50.8567 63.2727 51.6535 59.4991 69.8012V78.0112V86.2476" stroke="#EBAE99" stroke-width="8.23676"/>
<path d="M48.6532 31.2914C51.0464 28.2709 52.7964 21.3048 55.517 15.8137C58.5097 9.77345 63.4427 3.73364 67.7349 4.55668C71.2777 5.23603 75.5911 10.1844 78.1681 15.8137C81.0225 22.0491 83.1791 28.2613 85.9929 31.2914" stroke="#F27F42" stroke-width="8.23676"/>
</svg>
