<svg width="137" height="127" viewBox="0 0 137 127" fill="none" xmlns="http://www.w3.org/2000/svg">
<path d="M65.5508 12.7456L71.7685 22.7391L84.6514 19.1636" stroke="#F27F42" stroke-width="6.67169"/>
<path d="M73.6113 35.8687V42.318" stroke="#2F4822" stroke-width="6.67169"/>
<path d="M92 26.9731L90.0667 33.1258" stroke="#94120D" stroke-width="6.67169"/>
<path d="M85.7305 70.6724C89.2888 83.1262 91.7351 106.329 79.2812 106.329" stroke="#282D26" stroke-width="6.67169"/>
<path d="M103.524 72.563C103.524 87.8338 105.08 117.152 81.1735 118.264C49.3035 119.746 65.3836 85.5728 80.1725 98.5454" stroke="#282D26" stroke-width="6.67169"/>
<path d="M48.2578 12.2573C57.4129 9.62571 82.8834 10.6262 92.291 25.7488C104.189 44.8744 101.298 53.9923 103.966 59.5521" stroke="#282D26" stroke-width="6.67169"/>
<path d="M76.8346 52.8806C91.5124 57.0319 127.317 73.3033 130.764 26.9351C136.991 48.7292 133.878 86.7356 72.498 66.1868" stroke="#EBAE99" stroke-width="6.67169"/>
<path d="M57.3771 21.0427L41.6986 7.25459C34.3598 1.39843 27.9327 3.38501 24.0186 13.7039C19.1261 26.6025 17.4582 48.6562 19.0147 59.1085C20.2673 67.5206 22.2397 80.9398 32.3583 85.9065C37.807 88.5809 53.0405 94.5425 57.3771 62.1848" stroke="#282D26" stroke-width="6.67169"/>
<path d="M2 98.8784C8.93114 95.6908 23.5051 96.6767 26.3517 126.121" stroke="#282D26" stroke-width="6.67169"/>
<path d="M54.04 92.8003L51.5938 126.048" stroke="#282D26" stroke-width="6.67169"/>
<path d="M36.6541 22.0806C30.5382 29.6418 24.9784 70.0055 39.1001 74.7869" stroke="#F27F42" stroke-width="6.67169"/>
</svg>
