<svg width="225" height="118" viewBox="0 0 225 118" fill="none" xmlns="http://www.w3.org/2000/svg">
<path d="M224.697 112.848L203.066 112.703" stroke="#F27F42" stroke-width="8.32982"/>
<path d="M111.439 0.527344V14.688" stroke="#94120D" stroke-width="8.32982"/>
<path d="M16.7578 31.626L27.3527 41.0214" stroke="#94120D" stroke-width="8.32982"/>
<path d="M12.4395 67.9482L19.1048 72.5071" stroke="#F25430" stroke-width="8.32982"/>
<path d="M149.479 34.2817L157.064 37.0503" stroke="#F25430" stroke-width="8.32982"/>
<path d="M212.631 72.7197L205.935 77.2334" stroke="#F25430" stroke-width="8.32982"/>
<path d="M182.521 49.5283L188.971 54.3878" stroke="#F25430" stroke-width="8.32982"/>
<path d="M111.984 26.9058L111.607 34.9722" stroke="#F25430" stroke-width="8.32982"/>
<path d="M73.957 31.1108L76.0167 38.919" stroke="#F25430" stroke-width="8.32982"/>
<path d="M39.5273 44.209L43.9203 50.9848" stroke="#F25430" stroke-width="8.32982"/>
<path d="M22.5873 53.5613L38.7352 67.9548" stroke="#F27F42" stroke-width="8.32982"/>
<path d="M0.376408 112.913L22.0074 112.758" stroke="#F27F42" stroke-width="8.32982"/>
<path d="M2.88929 84.937L23.7654 90.6039" stroke="#F27F42" stroke-width="8.32982"/>
<path d="M132.789 26.3546L131.156 47.9244" stroke="#F27F42" stroke-width="8.32982"/>
<path d="M221.321 88.8763L200.847 95.8581" stroke="#F27F42" stroke-width="8.32982"/>
<path d="M202.198 58.6006L185.854 72.7708" stroke="#F27F42" stroke-width="8.32982"/>
<path d="M171.882 37.7685L158.643 54.8763" stroke="#F27F42" stroke-width="8.32982"/>
<path d="M93.2561 24.0975L94.7851 45.675" stroke="#F27F42" stroke-width="8.32982"/>
<path d="M54.0119 34.9582L65.1907 53.4774" stroke="#F27F42" stroke-width="8.32982"/>
<path d="M59.1621 11.0918L63.696 24.507" stroke="#94120D" stroke-width="8.32982"/>
<path d="M205.049 28.5718L196.405 39.7882" stroke="#94120D" stroke-width="8.32982"/>
<path d="M158.561 7.55713L155.631 21.4116" stroke="#94120D" stroke-width="8.32982"/>
<path d="M89.2266 113.091C96.8622 110.314 116.715 106.982 132.819 113.091" stroke="#94120D" stroke-width="8.32982"/>
<path d="M65.0723 112.842C76.0572 82.5449 143.774 84.6643 153.507 112.842" stroke="#F25430" stroke-width="8.32982"/>
<path d="M23.6973 117.007C23.6973 27.1835 196.205 32.8756 197.929 117.007" stroke="#F27F42" stroke-width="16.6596"/>
<path d="M47.9922 110.204C63.1247 53.9772 159.612 61.6131 171.135 110.204" stroke="#F27F42" stroke-width="8.32982"/>
</svg>
